<svg width="60" height="66" viewBox="0 0 60 66" fill="none" xmlns="http://www.w3.org/2000/svg">
<path d="M5.5 13.6114H11.6988L20.8494 39.1446H50.2199L54.5 28.6657M45.0542 4.46084C41.814 6.37035 40.1059 6.86251 36.3464 6.96988C32.1402 7.09 29.8316 6.52124 26.1626 4.46084M45.0542 4.46084C41.7303 2.76242 40.0778 2.34229 36.3464 2.24698C32.1651 2.14018 29.9222 2.62778 26.1626 4.46084M45.0542 4.46084C50.0241 7.60137 52.4903 11.8698 52.7289 17.744C53.1147 27.2429 45.8487 35.46 36.3464 35.75C26.5681 36.0484 18.5816 27.5205 18.9307 17.744C19.1396 11.8956 21.3638 7.81026 26.1626 4.46084" stroke="#446D91" stroke-width="3" stroke-linecap="round" stroke-linejoin="round"/>
<circle cx="27.1958" cy="45.0482" r="2.95181" fill="#446D91"/>
<circle cx="45.7921" cy="45.0482" r="2.95181" fill="#446D91"/>
<path d="M22.004 11.1417C22.004 11.1417 23.8532 11.9039 25.1034 11.9534C26.5776 12.0118 27.3177 11.1417 28.7931 11.1417C30.2685 11.1417 31.0075 11.9534 32.4829 11.9534C33.9583 11.9534 34.6973 11.1417 36.1727 11.1417C37.6481 11.1417 38.387 11.9534 39.8624 11.9534C41.3378 11.9534 42.0768 11.1417 43.5522 11.1417C45.0276 11.1417 45.7677 12.0118 47.2419 11.9534C48.4922 11.9039 50.3413 11.1417 50.3413 11.1417" stroke="#446D91" stroke-width="2" stroke-linejoin="round"/>
<path d="M6.03835 63L3.23438 59.2798H2.60369V63H0.758523V54.2727H2.60369V57.7585H2.97443L5.87216 54.2727H8.16903L4.7642 58.321L8.3267 63H6.03835ZM16.7823 58.6364C16.7823 59.5881 16.6019 60.3977 16.2411 61.0653C15.8832 61.733 15.3945 62.2429 14.7752 62.5952C14.1587 62.9446 13.4656 63.1193 12.6957 63.1193C11.9201 63.1193 11.2241 62.9432 10.6076 62.5909C9.99112 62.2386 9.50391 61.7287 9.14595 61.0611C8.788 60.3935 8.60902 59.5852 8.60902 58.6364C8.60902 57.6847 8.788 56.875 9.14595 56.2074C9.50391 55.5398 9.99112 55.0312 10.6076 54.6818C11.2241 54.3295 11.9201 54.1534 12.6957 54.1534C13.4656 54.1534 14.1587 54.3295 14.7752 54.6818C15.3945 55.0312 15.8832 55.5398 16.2411 56.2074C16.6019 56.875 16.7823 57.6847 16.7823 58.6364ZM14.9116 58.6364C14.9116 58.0199 14.8192 57.5 14.6346 57.0767C14.4528 56.6534 14.1957 56.3324 13.8633 56.1136C13.5309 55.8949 13.1417 55.7855 12.6957 55.7855C12.2496 55.7855 11.8604 55.8949 11.5281 56.1136C11.1957 56.3324 10.9371 56.6534 10.7525 57.0767C10.5707 57.5 10.4798 58.0199 10.4798 58.6364C10.4798 59.2528 10.5707 59.7727 10.7525 60.196C10.9371 60.6193 11.1957 60.9403 11.5281 61.1591C11.8604 61.3778 12.2496 61.4872 12.6957 61.4872C13.1417 61.4872 13.5309 61.3778 13.8633 61.1591C14.1957 60.9403 14.4528 60.6193 14.6346 60.196C14.8192 59.7727 14.9116 59.2528 14.9116 58.6364ZM18.1491 63V54.2727H21.5923C22.2543 54.2727 22.8182 54.3991 23.2841 54.652C23.75 54.902 24.1051 55.25 24.3494 55.696C24.5966 56.1392 24.7202 56.6506 24.7202 57.2301C24.7202 57.8097 24.5952 58.321 24.3452 58.7642C24.0952 59.2074 23.733 59.5526 23.2585 59.7997C22.7869 60.0469 22.2159 60.1705 21.5455 60.1705H19.3509V58.6918H21.2472C21.6023 58.6918 21.8949 58.6307 22.125 58.5085C22.358 58.3835 22.5313 58.2116 22.6449 57.9929C22.7614 57.7713 22.8196 57.517 22.8196 57.2301C22.8196 56.9403 22.7614 56.6875 22.6449 56.4716C22.5313 56.2528 22.358 56.0838 22.125 55.9645C21.892 55.8423 21.5966 55.7812 21.2386 55.7812H19.9943V63H18.1491ZM29.0934 63.1193C28.457 63.1193 27.8903 63.0099 27.3931 62.7912C26.8988 62.5696 26.5082 62.2656 26.2212 61.8793C25.9371 61.4901 25.7908 61.0412 25.7823 60.5327H27.6403C27.6516 60.7457 27.7212 60.9332 27.8491 61.0952C27.9798 61.2543 28.1531 61.3778 28.369 61.4659C28.5849 61.554 28.8278 61.598 29.0977 61.598C29.3789 61.598 29.6275 61.5483 29.8434 61.4489C30.0593 61.3494 30.2283 61.2116 30.3505 61.0355C30.4727 60.8594 30.5337 60.6562 30.5337 60.4261C30.5337 60.1932 30.4684 59.9872 30.3377 59.8082C30.2099 59.6264 30.0252 59.4844 29.7837 59.3821C29.5451 59.2798 29.261 59.2287 28.9315 59.2287H28.1175V57.8736H28.9315C29.2099 57.8736 29.4556 57.8253 29.6687 57.7287C29.8846 57.6321 30.0522 57.4986 30.1715 57.3281C30.2908 57.1548 30.3505 56.9531 30.3505 56.723C30.3505 56.5043 30.2979 56.3125 30.1928 56.1477C30.0906 55.9801 29.9457 55.8494 29.7582 55.7557C29.5735 55.6619 29.3576 55.6151 29.1104 55.6151C28.8604 55.6151 28.6317 55.6605 28.4244 55.7514C28.217 55.8395 28.0508 55.9659 27.9258 56.1307C27.8008 56.2955 27.734 56.4886 27.7255 56.7102H25.957C25.9656 56.2074 26.109 55.7642 26.3874 55.3807C26.6658 54.9972 27.0408 54.6974 27.5124 54.4815C27.9869 54.2628 28.5224 54.1534 29.119 54.1534C29.7212 54.1534 30.2482 54.2628 30.6999 54.4815C31.1516 54.7003 31.5025 54.9957 31.7525 55.3679C32.0053 55.7372 32.1303 56.152 32.1275 56.6122C32.1303 57.1009 31.9783 57.5085 31.6715 57.8352C31.3675 58.1619 30.9712 58.3693 30.4826 58.4574V58.5256C31.1246 58.608 31.6133 58.831 31.9485 59.1946C32.2866 59.5554 32.4542 60.0071 32.4513 60.5497C32.4542 61.0469 32.3107 61.4886 32.021 61.875C31.734 62.2614 31.3377 62.5653 30.832 62.7869C30.3263 63.0085 29.7468 63.1193 29.0934 63.1193ZM33.8288 54.2727H35.6697V59.7614H35.7422L39.5135 54.2727H41.1286V63H39.2834V57.5071H39.2195L35.4268 63H33.8288V54.2727ZM42.6531 63V54.2727H44.4982V57.8736H48.244V54.2727H50.0849V63H48.244V59.3949H44.4982V63H42.6531ZM53.1104 63H51.1332L54.146 54.2727H56.5238L59.5323 63H57.555L55.369 56.267H55.3008L53.1104 63ZM52.9869 59.5696H57.6573V61.0099H52.9869V59.5696Z" fill="#446D91"/>
</svg>
