<svg width="59" height="58" viewBox="0 0 59 58" fill="none" xmlns="http://www.w3.org/2000/svg">
<path d="M4.83331 3H53.8333" stroke="#3F505E" stroke-width="5" stroke-linecap="round" stroke-linejoin="round"/>
<path d="M4.83331 18H53.8333" stroke="#3F505E" stroke-width="5" stroke-linecap="round" stroke-linejoin="round"/>
<path d="M4.83331 33H53.8333" stroke="#3F505E" stroke-width="5" stroke-linecap="round" stroke-linejoin="round"/>
<path d="M6.37167 55L3.56769 51.2798H2.93701V55H1.09184V46.2727H2.93701V49.7585H3.30774L6.20547 46.2727H8.50235L5.09752 50.321L8.66002 55H6.37167ZM11.0922 55H9.11492L12.1277 46.2727H14.5055L17.5141 55H15.5368L13.3507 48.267H13.2825L11.0922 55ZM10.9686 51.5696H15.6391V53.0099H10.9686V51.5696ZM17.1657 47.794V46.2727H24.3333V47.794H21.6614V55H19.8376V47.794H17.1657ZM25.9516 55H23.9743L26.9871 46.2727H29.3649L32.3734 55H30.3962L28.2101 48.267H28.1419L25.9516 55ZM25.828 51.5696H30.4984V53.0099H25.828V51.5696ZM32.9509 55V53.517L33.198 53.4957C33.5162 53.4702 33.7733 53.3494 33.9693 53.1335C34.1653 52.9148 34.3117 52.5668 34.4082 52.0895C34.5077 51.6094 34.5716 50.9645 34.6 50.1548L34.7449 46.2727H40.6682V55H38.8742V47.7514H36.458L36.3216 50.7898C36.2761 51.767 36.1597 52.5653 35.9722 53.1847C35.7875 53.804 35.492 54.2614 35.0858 54.5568C34.6824 54.8523 34.1298 55 33.4281 55H32.9509ZM50.2094 50.6364C50.2094 51.5881 50.029 52.3977 49.6682 53.0653C49.3102 53.733 48.8216 54.2429 48.2023 54.5952C47.5858 54.9446 46.8926 55.1193 46.1227 55.1193C45.3472 55.1193 44.6511 54.9432 44.0347 54.5909C43.4182 54.2386 42.931 53.7287 42.573 53.0611C42.2151 52.3935 42.0361 51.5852 42.0361 50.6364C42.0361 49.6847 42.2151 48.875 42.573 48.2074C42.931 47.5398 43.4182 47.0312 44.0347 46.6818C44.6511 46.3295 45.3472 46.1534 46.1227 46.1534C46.8926 46.1534 47.5858 46.3295 48.2023 46.6818C48.8216 47.0312 49.3102 47.5398 49.6682 48.2074C50.029 48.875 50.2094 49.6847 50.2094 50.6364ZM48.3386 50.6364C48.3386 50.0199 48.2463 49.5 48.0617 49.0767C47.8798 48.6534 47.6227 48.3324 47.2903 48.1136C46.958 47.8949 46.5688 47.7855 46.1227 47.7855C45.6767 47.7855 45.2875 47.8949 44.9551 48.1136C44.6227 48.3324 44.3642 48.6534 44.1795 49.0767C43.9977 49.5 43.9068 50.0199 43.9068 50.6364C43.9068 51.2528 43.9977 51.7727 44.1795 52.196C44.3642 52.6193 44.6227 52.9403 44.9551 53.1591C45.2875 53.3778 45.6767 53.4872 46.1227 53.4872C46.5688 53.4872 46.958 53.3778 47.2903 53.1591C47.6227 52.9403 47.8798 52.6193 48.0617 52.196C48.2463 51.7727 48.3386 51.2528 48.3386 50.6364ZM57.3674 46.2727V47.794H53.4214V55H51.5762V46.2727H57.3674Z" fill="#3F505E"/>
</svg>
