<svg width="59" height="70" viewBox="0 0 59 70" fill="none" xmlns="http://www.w3.org/2000/svg">
<rect x="14" y="22" width="32" height="30" stroke="#3F505E" stroke-width="4"/>
<path d="M29.5 3L50.7176 21.75H8.28238L29.5 3Z" stroke="#3F505E" stroke-width="5" stroke-linejoin="round"/>
<rect x="26" y="33" width="8" height="8" stroke="#3F505E" stroke-width="3" stroke-linejoin="round"/>
<path d="M6.54972 58.2727V59.794H2.60369V67H0.758523V58.2727H6.54972ZM7.25817 67V65.517L7.50533 65.4957C7.82351 65.4702 8.08061 65.3494 8.27663 65.1335C8.47266 64.9148 8.61896 64.5668 8.71555 64.0895C8.81499 63.6094 8.87891 62.9645 8.90732 62.1548L9.0522 58.2727H14.9755V67H13.1815V59.7514H10.7653L10.6289 62.7898C10.5835 63.767 10.467 64.5653 10.2795 65.1847C10.0948 65.804 9.79936 66.2614 9.39311 66.5568C8.9897 66.8523 8.43714 67 7.73544 67H7.25817ZM18.0011 67H16.0238L19.0366 58.2727H21.4144L24.4229 67H22.4457L20.2596 60.267H20.1914L18.0011 67ZM17.8775 63.5696H22.5479V65.0099H17.8775V63.5696ZM25.4734 67V58.2727H28.9677C29.6097 58.2727 30.1452 58.3679 30.5742 58.5582C31.0032 58.7486 31.3256 59.0128 31.5415 59.3509C31.7575 59.6861 31.8654 60.0724 31.8654 60.5099C31.8654 60.8509 31.7972 61.1506 31.6609 61.4091C31.5245 61.6648 31.337 61.875 31.0984 62.0398C30.8626 62.2017 30.5927 62.3168 30.2887 62.3849V62.4702C30.6211 62.4844 30.9322 62.5781 31.2219 62.7514C31.5146 62.9247 31.7518 63.1676 31.9336 63.4801C32.1154 63.7898 32.2063 64.1591 32.2063 64.5881C32.2063 65.0511 32.0913 65.4645 31.8612 65.8281C31.6339 66.1889 31.2972 66.4744 30.8512 66.6847C30.4052 66.8949 29.8555 67 29.2021 67H25.4734ZM27.3185 65.4915H28.8228C29.337 65.4915 29.712 65.3935 29.9478 65.1974C30.1836 64.9986 30.3015 64.7344 30.3015 64.4048C30.3015 64.1634 30.2433 63.9503 30.1268 63.7656C30.0103 63.581 29.8441 63.4361 29.6282 63.331C29.4151 63.2259 29.1609 63.1733 28.8654 63.1733H27.3185V65.4915ZM27.3185 61.9247H28.6864C28.9393 61.9247 29.1637 61.8807 29.3597 61.7926C29.5586 61.7017 29.7148 61.5739 29.8285 61.4091C29.945 61.2443 30.0032 61.0469 30.0032 60.8168C30.0032 60.5014 29.891 60.2472 29.6665 60.054C29.445 59.8608 29.1296 59.7642 28.7205 59.7642H27.3185V61.9247ZM33.407 67V58.2727H35.2521V61.8736H38.9979V58.2727H40.8388V67H38.9979V63.3949H35.2521V67H33.407ZM43.8643 67H41.8871L44.8999 58.2727H47.2777L50.2862 67H48.3089L46.1229 60.267H46.0547L43.8643 67ZM43.7408 63.5696H48.4112V65.0099H43.7408V63.5696ZM58.0355 67H56.1946V59.7812H54.9503C54.5952 59.7812 54.2997 59.8338 54.0639 59.9389C53.831 60.0412 53.6563 60.1918 53.5398 60.3906C53.4233 60.5895 53.3651 60.8338 53.3651 61.1236C53.3651 61.4105 53.4233 61.6506 53.5398 61.8438C53.6563 62.0369 53.831 62.1818 54.0639 62.2784C54.2969 62.375 54.5895 62.4233 54.9418 62.4233H56.9446V63.9062H54.6435C53.9759 63.9062 53.4048 63.7955 52.9304 63.5739C52.456 63.3523 52.0938 63.0341 51.8438 62.6193C51.5938 62.2017 51.4688 61.7031 51.4688 61.1236C51.4688 60.5469 51.5909 60.0455 51.8352 59.6193C52.0824 59.1903 52.4389 58.8594 52.9048 58.6264C53.3736 58.3906 53.9375 58.2727 54.5966 58.2727H58.0355V67ZM53.3267 63.0284H55.3168L53.1946 67H51.1577L53.3267 63.0284Z" fill="#3F505E"/>
</svg>
