<svg width="51" height="61" viewBox="0 0 51 61" fill="none" xmlns="http://www.w3.org/2000/svg">
<path d="M26.5986 5.78876C27.0119 5.73401 27.3793 5.8859 27.7484 6.02721C29.5006 6.69309 31.2527 7.3572 33.0048 8.02308C34.0646 8.42579 35.1244 8.8338 36.1876 9.22767C36.3025 9.27006 36.4526 9.28066 36.5709 9.24887C37.5636 8.97686 38.5527 8.69249 39.5418 8.41343C40.6598 8.0955 41.7779 7.7758 42.8977 7.46847C42.9595 7.45081 43.0708 7.50203 43.1132 7.55679C43.7843 8.41696 44.3266 9.35661 44.8423 10.3139C45.7873 12.0661 46.6422 13.8606 47.4246 15.6904C48.2318 17.5768 49.016 19.472 49.8073 21.3654C49.9327 21.6639 50.0528 21.966 50.1553 22.2733C50.1817 22.3528 50.1606 22.4888 50.1058 22.5488C48.9772 23.8011 47.5889 24.6418 45.9851 25.147C44.8088 25.5179 43.5971 25.6539 42.3749 25.6786C41.8061 25.6892 41.2356 25.6115 40.6669 25.5585C40.5821 25.5515 40.492 25.4738 40.4231 25.4102C39.3811 24.4582 38.3443 23.5008 37.3039 22.5471C35.9209 21.2771 34.538 20.0072 33.1567 18.7372C31.5194 17.2324 29.8856 15.7258 28.2483 14.2209C27.7802 13.7917 27.3122 13.3607 26.8388 12.9386C26.7929 12.898 26.6958 12.875 26.6375 12.8909C25.8427 13.1117 25.0531 13.3572 24.2548 13.5656C23.3275 13.8076 22.3984 14.0531 21.457 14.228C20.8017 14.3498 20.1288 14.3569 19.4541 14.2704C18.7405 14.1785 18.0552 14.0142 17.4052 13.7034C16.349 13.1965 15.5718 12.4052 15.0261 11.3772C14.9536 11.2412 14.8848 11.1017 14.8229 10.9586C14.5209 10.2645 15.178 9.46259 15.7608 9.27889C16.7694 8.96097 17.7797 8.65187 18.7723 8.28979C20.6322 7.60801 22.4762 6.88561 24.3325 6.19323C25.0637 5.9177 25.8285 5.82762 26.5986 5.78876Z" fill="#446D91"/>
<path d="M9.81206 21.7946C10.9319 21.1976 11.9775 21.3018 12.9348 22.1161C13.4594 22.563 13.7473 23.1529 13.8321 23.84C13.9151 24.5182 13.742 25.1346 13.3128 25.7299C14.6905 25.4897 15.7308 25.9365 16.3631 27.1058C16.9972 28.2751 16.7676 29.379 15.7944 30.3557C15.8986 30.3645 15.9339 30.3769 15.9622 30.3681C16.8948 30.0978 18.0888 30.6048 18.6398 31.4826C19.228 32.4187 19.2987 33.3866 18.6681 34.3263C18.4067 34.7166 18.0552 35.0451 17.7408 35.3984C17.2675 35.93 16.7906 36.4581 16.319 36.9916C15.5648 37.8447 14.286 38.1114 13.3799 37.5515C13.0267 37.3324 12.7229 37.0198 12.435 36.7143C11.0008 35.1935 9.68489 33.5721 8.42378 31.9065C6.96838 29.983 5.52005 28.0543 4.07171 26.1255C3.61602 25.5179 3.21861 24.8785 3.10733 24.1049C3.00842 23.4178 3.15502 22.8085 3.65134 22.2927C4.24304 21.6781 4.81707 21.0457 5.39817 20.4205C6.1559 19.6027 7.41171 19.4331 8.44851 20.0213C9.08966 20.3852 9.52593 20.9203 9.73435 21.6321C9.74671 21.6728 9.76084 21.7134 9.77674 21.7522C9.78027 21.7611 9.79264 21.7717 9.81206 21.7946Z" fill="#446D91"/>
<path d="M18.2 37.6044C18.6875 37.0604 19.1768 36.5147 19.6254 36.013C20.0846 36.4458 20.5385 36.8644 20.9854 37.2953C21.291 37.5903 21.5647 37.9153 21.8827 38.1944C22.9336 39.1217 24.6398 38.8709 25.4788 37.6786C25.5318 37.6044 25.5777 37.5267 25.636 37.4384C25.1926 36.9845 24.7564 36.5341 24.3183 36.0872C23.1632 34.9056 22.0063 33.7275 20.8529 32.5459C20.5103 32.1944 20.4502 31.7475 20.6904 31.3678C20.9059 31.0233 21.3175 30.8679 21.706 31.0128C21.8526 31.0675 21.9939 31.1682 22.1035 31.2795C23.6613 32.8656 25.2121 34.4587 26.7664 36.0484C27.2256 36.5182 27.699 36.9739 28.1405 37.4596C28.4602 37.8093 28.8594 37.9524 29.3027 37.993C30.5162 38.1078 31.7402 37.2671 32.0687 36.0978C32.0881 36.0307 32.044 35.9194 31.9928 35.8664C31.1502 34.9939 30.2989 34.1267 29.4511 33.2594C27.5912 31.3554 25.7331 29.4514 23.875 27.5473C23.6966 27.3654 23.5218 27.1817 23.3416 27.0016C22.9883 26.6466 22.9725 26.0672 23.3098 25.7228C23.6578 25.366 24.1876 25.3519 24.5586 25.7193C25.2704 26.4258 25.9663 27.1464 26.6657 27.8617C27.9975 29.2235 29.3292 30.5888 30.661 31.9506C31.6236 32.9344 32.5845 33.92 33.5541 34.8968C33.6283 34.9709 33.759 35.0239 33.8632 35.0257C35.0148 35.054 36.1558 34.1426 36.4473 33.0139C36.5303 32.6907 36.4791 32.4823 36.2388 32.2385C33.3828 29.3366 30.5391 26.4222 27.6937 23.5114C27.2839 23.0928 26.8741 22.6742 26.4661 22.2539C26.1076 21.8847 26.0987 21.3266 26.4449 20.9768C26.8123 20.6059 27.3263 20.6006 27.706 20.9874C29.2286 22.5382 30.7475 24.0925 32.2665 25.6468C34.0081 27.429 35.7496 29.2094 37.4858 30.9969C37.6519 31.1682 37.8038 31.1964 38.0281 31.1417C39.6566 30.746 40.5468 29.0504 39.9321 27.4891C39.9127 27.4378 39.895 27.3849 39.8685 27.3124C40.1282 27.346 40.3701 27.3866 40.6121 27.406C41.0908 27.4467 41.5694 27.4838 42.0481 27.5085C42.1841 27.5156 42.2388 27.5473 42.2653 27.6922C42.6769 30.0731 41.2144 32.4999 38.9077 33.2294C38.7046 33.2948 38.6215 33.3954 38.5633 33.5897C37.9769 35.5344 36.7051 36.7549 34.7128 37.2017C34.5344 37.2424 34.349 37.26 34.167 37.2653C34.0257 37.2689 33.9533 37.3289 33.895 37.449C33.2592 38.7472 32.2577 39.6374 30.8729 40.049C29.5553 40.4411 28.2836 40.2803 27.1073 39.5509C26.9359 39.4449 26.8635 39.4873 26.7417 39.6039C25.4611 40.8367 23.9492 41.2606 22.22 40.8455C21.3952 40.6477 20.7099 40.1956 20.1217 39.5897C19.4964 38.9468 18.8694 38.3074 18.2424 37.6663C18.2283 37.6539 18.2194 37.6345 18.2 37.6044Z" fill="#446D91"/>
<path d="M4.63868 18.5147C4.13706 19.0375 3.63368 19.5603 3.12499 20.0884C2.30015 19.094 1.47354 18.0131 1.27925 16.6124C1.13265 15.5544 1.14501 14.4859 1.22626 13.419C1.37993 11.4143 1.86212 9.49086 2.72405 7.67338C3.994 4.99749 5.77615 2.74374 8.23126 1.04459C8.49973 0.859137 8.70638 0.850306 8.99782 0.947451C11.2251 1.69458 13.4594 2.42405 15.6902 3.16234C17.52 3.76641 19.3463 4.37577 21.1762 4.98159C21.3493 5.03988 21.5242 5.0964 21.7467 5.17058C21.5807 5.2377 21.457 5.29069 21.3316 5.33661C20.3831 5.67927 19.4347 6.02369 18.4826 6.36104C18.4049 6.38931 18.3007 6.38931 18.223 6.36281C15.669 5.52207 13.1167 4.67603 10.5645 3.83176C10.0894 3.67456 9.61248 3.52089 9.13912 3.35487C8.98899 3.30188 8.87948 3.32131 8.75407 3.42375C7.09025 4.77671 5.80618 6.4317 4.8577 8.34986C3.79088 10.5065 3.35284 12.7955 3.36167 15.1959C3.36521 16.3758 3.73435 17.3772 4.48502 18.2604C4.57156 18.361 4.65105 18.4688 4.73229 18.573C4.70227 18.5536 4.67047 18.5341 4.63868 18.5147Z" fill="#446D91"/>
<path d="M2.36691 58.1193V56.6193H2.83992C3.07572 56.6193 3.26606 56.5909 3.41094 56.5341C3.55583 56.4744 3.67089 56.3878 3.75611 56.2741C3.84418 56.1577 3.91805 56.0128 3.97771 55.8395L4.08424 55.554L0.913785 49.2727H2.82288L4.87685 53.5682L6.59418 49.2727H8.47771L5.46918 56.2869C5.3243 56.6108 5.15242 56.9119 4.95356 57.1903C4.75754 57.4687 4.50611 57.6932 4.1993 57.8636C3.89248 58.0341 3.50043 58.1193 3.02316 58.1193H2.36691ZM16.6489 52.3281H14.7824C14.7483 52.0866 14.6787 51.8722 14.5736 51.6847C14.4685 51.4943 14.3335 51.3324 14.1688 51.1989C14.004 51.0653 13.8136 50.9631 13.5977 50.892C13.3847 50.821 13.1531 50.7855 12.9031 50.7855C12.4514 50.7855 12.058 50.8977 11.7227 51.1222C11.3875 51.3437 11.1276 51.6676 10.9429 52.0938C10.7582 52.517 10.6659 53.0312 10.6659 53.6364C10.6659 54.2585 10.7582 54.7812 10.9429 55.2045C11.1304 55.6278 11.3918 55.9474 11.727 56.1634C12.0622 56.3793 12.45 56.4872 12.8903 56.4872C13.1375 56.4872 13.3662 56.4545 13.5764 56.3892C13.7895 56.3239 13.9784 56.2287 14.1432 56.1037C14.308 55.9759 14.4443 55.821 14.5523 55.6392C14.6631 55.4574 14.7398 55.25 14.7824 55.017L16.6489 55.0256C16.6006 55.4261 16.4798 55.8125 16.2867 56.1847C16.0963 56.554 15.8392 56.8849 15.5153 57.1776C15.1943 57.4673 14.8108 57.6974 14.3648 57.8679C13.9216 58.0355 13.4202 58.1193 12.8605 58.1193C12.0821 58.1193 11.3861 57.9432 10.7724 57.5909C10.1617 57.2386 9.6787 56.7287 9.32359 56.0611C8.97131 55.3935 8.79518 54.5852 8.79518 53.6364C8.79518 52.6847 8.97415 51.875 9.33211 51.2074C9.69006 50.5398 10.1759 50.0312 10.7895 49.6818C11.4031 49.3295 12.0935 49.1534 12.8605 49.1534C13.3662 49.1534 13.8349 49.2244 14.2668 49.3665C14.7014 49.5085 15.0864 49.7159 15.4216 49.9886C15.7568 50.2585 16.0296 50.5895 16.2398 50.9815C16.4528 51.3736 16.5892 51.8224 16.6489 52.3281ZM17.499 58V56.517L17.7462 56.4957C18.0644 56.4702 18.3215 56.3494 18.5175 56.1335C18.7135 55.9148 18.8598 55.5668 18.9564 55.0895C19.0558 54.6094 19.1198 53.9645 19.1482 53.1548L19.293 49.2727H25.2163V58H23.4223V50.7514H21.0061L20.8698 53.7898C20.8243 54.767 20.7078 55.5653 20.5203 56.1847C20.3357 56.804 20.0402 57.2614 19.634 57.5568C19.2305 57.8523 18.678 58 17.9763 58H17.499ZM27.6794 58.1193V56.6193H28.1524C28.3882 56.6193 28.5786 56.5909 28.7234 56.5341C28.8683 56.4744 28.9834 56.3878 29.0686 56.2741C29.1567 56.1577 29.2305 56.0128 29.2902 55.8395L29.3967 55.554L26.2263 49.2727H28.1354L30.1894 53.5682L31.9067 49.2727H33.7902L30.7817 56.2869C30.6368 56.6108 30.4649 56.9119 30.2661 57.1903C30.07 57.4687 29.8186 57.6932 29.5118 57.8636C29.205 58.0341 28.8129 58.1193 28.3357 58.1193H27.6794ZM40.5796 49.2727V50.794H36.6336V58H34.7884V49.2727H40.5796ZM41.7611 49.2727H43.602V54.7614H43.6744L47.4457 49.2727H49.0608V58H47.2156V52.5071H47.1517L43.3591 58H41.7611V49.2727Z" fill="#446D91"/>
</svg>
