<svg width="67" height="64" viewBox="0 0 67 64" fill="none" xmlns="http://www.w3.org/2000/svg">
<g clip-path="url(#clip0_26_176)">
<path d="M33.3252 64C33.2757 64 33.2269 64 33.1774 64C33.1774 63.9879 33.1833 63.9716 33.1774 63.9652C31.7808 62.4676 30.3821 60.9728 28.9885 59.4731C28.8185 59.2903 28.6589 59.2825 28.4439 59.4041C27.5232 59.9268 26.5959 60.4395 25.67 60.9536C24.7693 61.4542 23.867 61.952 22.9471 62.4612C22.8695 62.299 22.8119 62.1824 22.7587 62.0644C22.0353 60.4608 21.3178 58.8551 20.5877 57.2551C20.2633 56.5447 20.253 56.5518 19.4594 56.7175C17.6742 57.0901 15.8852 57.4514 14.1037 57.8396C13.8052 57.9051 13.715 57.7963 13.6759 57.5694C13.6153 57.2196 13.5606 56.8683 13.5215 56.5156C13.3463 54.9284 13.1815 53.3404 12.9961 51.7547C12.9843 51.6558 12.8409 51.5036 12.7426 51.4916C11.8412 51.3792 10.9367 51.2932 10.033 51.1986C8.93425 51.0834 7.83474 50.9682 6.73597 50.8494C6.43967 50.8174 6.32366 50.6965 6.39902 50.373C6.82834 48.5305 7.23105 46.6816 7.65223 44.8377C7.70986 44.5845 7.65075 44.4544 7.39287 44.3513C6.55494 44.0149 5.72883 43.6516 4.89533 43.3031C3.80616 42.8473 2.71478 42.3957 1.59902 41.9321C1.67069 41.7956 1.72463 41.6796 1.78966 41.5708C2.77242 39.9317 3.74927 38.2898 4.74681 36.6592C4.90715 36.3968 4.86651 36.2468 4.64705 36.059C3.83794 35.3671 3.04434 34.6574 2.2367 33.9634C1.49926 33.3262 0.747046 32.7012 0 32.0711C0 32.0235 0 31.9765 0 31.9289C0.223153 31.7476 0.45074 31.5712 0.66872 31.3842C1.9537 30.2812 3.23868 29.1776 4.51922 28.0704C4.94484 27.7028 4.94631 27.6942 4.67439 27.2263C4.29607 26.5764 3.91183 25.9292 3.52316 25.2857C2.88252 24.2247 2.2367 23.1673 1.57907 22.0864C1.73572 22.0167 1.8436 21.9662 1.95444 21.92C3.63178 21.2217 5.31577 20.539 6.98351 19.8215C7.8909 19.4311 7.75568 19.6686 7.55765 18.7172C7.20371 17.0169 6.80395 15.3259 6.40346 13.6348C6.32957 13.3234 6.41824 13.1897 6.72932 13.1534C7.32637 13.0844 7.92267 13.0041 8.52046 12.9422C9.9244 12.7972 11.3291 12.6649 12.7315 12.5099C12.8328 12.4985 12.9857 12.3541 12.9983 12.2581C13.1143 11.3792 13.2015 10.4967 13.302 9.61564C13.421 8.57031 13.5451 7.52569 13.6678 6.48036C13.7025 6.18596 13.834 6.08996 14.1636 6.16107C16.0655 6.57138 17.9734 6.95467 19.8761 7.36071C20.1739 7.424 20.3173 7.35502 20.4362 7.08267C20.8537 6.1248 21.2993 5.17831 21.7286 4.22613C22.1284 3.34009 22.5215 2.4512 22.9286 1.53956C23.1074 1.632 23.2589 1.70453 23.4059 1.78631C25.0449 2.69582 26.689 3.59609 28.3161 4.52409C28.6604 4.72036 28.8658 4.68764 29.1207 4.4032C29.7725 3.67787 30.4567 2.98027 31.118 2.26347C31.8097 1.51324 32.4909 0.754489 33.1774 0C33.2269 0 33.2757 0 33.3252 0C33.3259 0.0120889 33.3222 0.0277333 33.3289 0.0348444C34.7247 1.53244 36.1227 3.02862 37.5163 4.52836C37.6863 4.71111 37.8407 4.71324 38.0587 4.58951C39.2749 3.8976 40.4986 3.21849 41.7215 2.53653C42.3222 2.2016 42.9259 1.86951 43.5474 1.52604C43.6279 1.69316 43.687 1.80907 43.7402 1.92711C44.4119 3.42258 45.0777 4.92089 45.7567 6.41351C46.2415 7.47804 46.2474 7.46809 47.4282 7.2128C49.0671 6.85796 50.7112 6.52373 52.3479 6.15964C52.6878 6.08427 52.8053 6.20871 52.8392 6.48889C52.939 7.31093 53.0358 8.13298 53.1289 8.95573C53.2538 10.0601 53.3698 11.1659 53.5072 12.2688C53.5183 12.3591 53.658 12.4949 53.7503 12.5056C54.909 12.6379 56.0698 12.7481 57.2292 12.8697C58.0841 12.9593 58.9383 13.0517 59.7917 13.1556C60.0319 13.1847 60.1752 13.2629 60.1013 13.5794C59.6691 15.4197 59.273 17.2686 58.8496 19.1111C58.7809 19.4112 58.8644 19.5534 59.157 19.6722C60.5144 20.2226 61.8636 20.7929 63.2136 21.3582C63.7701 21.5915 64.322 21.8318 64.8903 22.075C64.7794 22.2684 64.6937 22.4242 64.6021 22.5771C63.6644 24.1451 62.7341 25.7173 61.7794 27.2768C61.5902 27.5861 61.6361 27.7682 61.9043 27.9943C62.8841 28.822 63.8447 29.6718 64.8171 30.5074C65.3742 30.9867 65.941 31.4553 66.5033 31.9289C66.5033 31.9765 66.5033 32.0235 66.5033 32.0711C66.1619 32.3563 65.8176 32.6379 65.4806 32.9266C64.2866 33.9513 63.0954 34.9788 61.9021 36.0043C61.6856 36.1899 61.5548 36.347 61.7528 36.6585C62.3617 37.6171 62.9284 38.5998 63.5114 39.5733C63.9762 40.3484 64.4403 41.1243 64.9161 41.9193C64.8068 41.9705 64.7432 42.0032 64.6774 42.0309C62.9432 42.7534 61.2045 43.4667 59.4755 44.2012C58.6154 44.5668 58.7535 44.3577 58.9405 45.2608C59.2974 46.986 59.6986 48.7026 60.1035 50.4178C60.1693 50.6972 60.0703 50.794 59.8272 50.8324C59.4636 50.89 59.0994 50.9483 58.7328 50.986C57.0836 51.1545 55.4328 51.3124 53.7851 51.4894C53.6809 51.5008 53.5183 51.6366 53.5065 51.7284C53.3668 52.8434 53.253 53.9612 53.1259 55.0777C53.0336 55.8884 52.9383 56.699 52.8319 57.5076C52.8016 57.7394 52.7535 57.9186 52.3878 57.8389C50.4629 57.4194 48.5291 57.0354 46.5998 56.6315C46.3434 56.5781 46.1964 56.6236 46.087 56.8768C45.7383 57.6839 45.3599 58.4796 44.9979 59.2811C44.5242 60.33 44.0557 61.381 43.5747 62.4548C43.3892 62.3602 43.2267 62.2834 43.0693 62.1966C41.4178 61.2821 39.7619 60.3755 38.1215 59.4432C37.803 59.2626 37.6272 59.3273 37.4084 59.5676C36.7434 60.298 36.0555 61.0091 35.3853 61.7351C34.6937 62.486 34.0116 63.2448 33.3252 64ZM16.3463 9.63271C16.2835 10.1348 16.2259 10.5671 16.1771 11.0002C16.0316 12.293 15.8852 13.5865 15.7508 14.8807C15.7308 15.0706 15.6717 15.1381 15.4678 15.1573C14.3675 15.2612 13.2687 15.382 12.17 15.4965C11.465 15.5705 10.7609 15.6444 10.0367 15.7198C10.0567 15.894 10.0604 16.0121 10.0855 16.1266C10.4017 17.5829 10.7195 19.0386 11.0402 20.4942C11.1754 21.1072 11.1872 21.1278 10.6064 21.3881C9.50469 21.8816 8.39041 22.3495 7.28203 22.8295C6.86011 23.0123 6.43893 23.1964 5.96011 23.4048C6.29188 24.0107 6.59262 24.576 6.90962 25.1328C7.46454 26.107 8.0276 27.0777 8.59287 28.0462C8.72735 28.2766 8.70371 28.4224 8.47612 28.6108C7.31824 29.5666 6.18252 30.5472 5.03498 31.5157C4.86208 31.6615 4.66996 31.786 4.44163 31.9524C4.71873 32.1934 4.88277 32.3356 5.04681 32.4786C6.15075 33.4407 7.25839 34.3986 8.35716 35.3657C8.84854 35.798 8.80346 35.6587 8.49312 36.2005C7.834 37.3497 7.14312 38.4825 6.47439 39.6267C6.29632 39.931 6.15223 40.2539 5.9808 40.5931C6.22612 40.7083 6.42045 40.805 6.61922 40.891C7.95223 41.467 9.29189 42.0288 10.6175 42.6204C11.1887 42.875 11.1754 42.902 11.0446 43.4916C10.749 44.8192 10.4505 46.1461 10.1601 47.4745C10.104 47.7319 10.0788 47.9957 10.0345 48.2887C10.7838 48.3648 11.468 48.4338 12.1522 48.5035C13.2517 48.6158 14.3513 48.7332 15.4522 48.8363C15.671 48.8569 15.7308 48.9422 15.7508 49.1442C15.8586 50.2272 15.9835 51.3088 16.1062 52.3904C16.1793 53.034 16.2584 53.6768 16.3375 54.3424C16.5119 54.3204 16.6338 54.3118 16.752 54.2884C18.2542 53.989 19.7557 53.6868 21.2572 53.386C21.9303 53.2508 21.9577 53.2395 22.2444 53.8318C22.7986 54.9774 23.318 56.138 23.8545 57.2914C23.9986 57.6007 24.1515 57.9058 24.3252 58.2649C24.8542 58.0011 25.3486 57.7678 25.8289 57.5118C26.9572 56.9109 28.0811 56.3015 29.202 55.6885C29.403 55.579 29.5175 55.6231 29.6653 55.7867C30.6436 56.8676 31.6331 57.9385 32.6225 59.0094C32.8153 59.2185 33.023 59.4148 33.2978 59.6914C33.3961 59.5556 33.4567 59.4503 33.5372 59.3636C34.6005 58.2137 35.6779 57.0745 36.7249 55.9111C36.9776 55.6302 37.1772 55.6053 37.4949 55.7803C38.7629 56.4793 40.0397 57.1648 41.318 57.8475C41.5922 57.9932 41.8863 58.1042 42.207 58.2471C42.5395 57.5196 42.8432 56.837 43.1616 56.1607C43.5666 55.3003 43.9826 54.4441 44.3964 53.5879C44.5146 53.3433 44.6846 53.2558 44.9883 53.3248C46.0619 53.5701 47.1422 53.7884 48.2225 54.0089C48.8528 54.1376 49.4868 54.25 50.1555 54.3765C50.2176 53.8837 50.2752 53.4635 50.3225 53.0418C50.4666 51.7483 50.6107 50.4548 50.7429 49.1598C50.7644 48.9472 50.8309 48.8562 51.0681 48.8341C52.1565 48.7353 53.2427 48.6172 54.3304 48.5049C55.036 48.4324 55.7417 48.3577 56.471 48.2816C56.4503 48.101 56.4466 47.9716 56.4193 47.8464C56.1097 46.437 55.7934 45.0297 55.4868 43.6203C55.3264 42.8843 55.3242 42.8622 56.0284 42.5493C57.187 42.0338 58.3612 41.5488 59.5272 41.0489C59.8486 40.9109 60.1664 40.7652 60.5233 40.6059C60.3703 40.2937 60.2506 40.0107 60.0984 39.7447C59.3735 38.4818 58.642 37.2231 57.9082 35.9652C57.7819 35.749 57.7959 35.606 58.0095 35.4261C59.2412 34.3893 60.4538 33.3312 61.6789 32.2866C61.7779 32.202 61.9191 32.1636 62.041 32.1031C61.86 31.8599 61.7513 31.7831 61.6508 31.6971C60.4479 30.6645 59.2523 29.6228 58.0383 28.6023C57.804 28.4053 57.7796 28.2503 57.9245 28.0057C58.5385 26.9682 59.1466 25.9271 59.7474 24.8825C60.0186 24.4103 60.2661 23.9246 60.5491 23.3998C60.0149 23.1694 59.5361 22.9639 59.0587 22.7563C57.9851 22.2905 56.9055 21.8354 55.84 21.3511C55.3228 21.1164 55.3309 21.0901 55.4498 20.5582C55.6974 19.4503 55.9545 18.3445 56.1969 17.2359C56.304 16.7467 56.3853 16.2517 56.4814 15.7426C56.2102 15.7056 56.0048 15.6715 55.7986 15.6494C54.2225 15.4823 52.6471 15.3131 51.0695 15.158C50.8597 15.1374 50.7688 15.0791 50.7466 14.8708C50.6654 14.0828 50.5641 13.2971 50.4784 12.5099C50.3764 11.5712 50.2833 10.6325 50.1821 9.64978C49.8592 9.69813 49.5939 9.72587 49.3346 9.77849C47.9535 10.0594 46.574 10.346 45.1937 10.6304C44.5833 10.7563 44.5626 10.7655 44.2885 10.2187C43.8939 9.43147 43.5304 8.62933 43.1587 7.83147C42.8439 7.1552 42.5358 6.47538 42.2003 5.74222C41.7836 5.94347 41.4075 6.10987 41.0461 6.30187C39.8306 6.94684 38.618 7.59893 37.4084 8.25387C37.1639 8.38613 36.9976 8.39253 36.7885 8.15502C35.9941 7.2512 35.171 6.36942 34.356 5.48267C34.0079 5.10436 33.6525 4.73244 33.2284 4.2816C33.0969 4.448 33.0008 4.58738 32.8877 4.71111C31.8074 5.89369 30.7183 7.06987 29.6461 8.26027C29.4673 8.45938 29.3498 8.49493 29.1045 8.352C27.9798 7.69564 26.8449 7.05493 25.7047 6.42418C25.2651 6.18098 24.8003 5.97902 24.3193 5.74436C24.1449 6.11058 24.0008 6.40996 23.8596 6.71004C23.2995 7.90471 22.7291 9.09582 22.186 10.2976C22.0124 10.6823 21.7648 10.7392 21.3732 10.651C20.2153 10.3893 19.0508 10.1511 17.8877 9.91218C17.3934 9.81049 16.899 9.73227 16.3463 9.63271Z" fill="#3E3E3D"/>
<path d="M42.3791 15.5634C43.2001 16.0761 43.9981 16.5746 44.825 17.0916C44.1821 18.0743 43.5969 18.9746 43.0057 19.8713C39.5557 25.1044 36.1087 30.3403 32.6513 35.5691C29.9055 39.7205 27.1434 43.8613 24.3968 48.0121C24.2225 48.2752 24.0488 48.3541 23.771 48.1877C23.1769 47.8308 22.5858 47.4695 21.9872 47.1197C21.7715 46.9938 21.8816 46.8516 21.9532 46.7271C22.2843 46.1604 22.6087 45.5886 22.9678 45.0382C25.8577 40.6116 28.7469 36.1842 31.6538 31.7668C34.5865 27.3095 37.5385 22.8637 40.4823 18.4135C41.1082 17.467 41.7392 16.5241 42.3791 15.5634Z" fill="#3E3E3D"/>
<path d="M39.9592 37.0418C43.0619 36.8349 46.0257 39.781 45.8077 43.0002C45.5786 46.3851 42.5077 48.4068 39.9133 48.3705C36.5358 48.3236 33.9148 45.7337 33.9976 42.5017C34.0766 39.4261 36.9008 36.8633 39.9592 37.0418ZM37.033 42.7499C37.0212 44.5333 38.4747 45.499 39.9133 45.4912C41.618 45.482 42.8675 44.192 42.8166 42.5479C42.7641 40.8605 41.304 39.84 39.8032 39.8428C38.2079 39.8464 36.9909 41.1556 37.033 42.7499Z" fill="#3E3E3D"/>
<path d="M26.468 26.8921C24.0289 27.232 21.2328 24.9124 20.7761 22.3339C20.3335 19.8379 21.6909 17.2267 24.3399 16.0704C27.5631 14.6645 31.7454 16.6941 32.3816 20.3143C32.9003 23.2661 30.9739 25.7621 28.7513 26.5984C28.05 26.8622 27.2439 26.8672 26.485 26.9909C26.4798 26.9582 26.4739 26.9255 26.468 26.8921ZM26.5552 24.1166C28.2355 24.1259 29.4798 22.944 29.485 21.3333C29.4902 19.7348 28.2496 18.5038 26.6298 18.5003C24.9776 18.4967 23.6934 19.7369 23.6838 21.3447C23.6757 22.89 24.937 24.1074 26.5552 24.1166Z" fill="#3E3E3D"/>
</g>
<defs>
<clipPath id="clip0_26_176">
<rect width="66.5026" height="64" fill="white"/>
</clipPath>
</defs>
</svg>
