<svg width="34" height="130" viewBox="0 0 34 130" fill="none" xmlns="http://www.w3.org/2000/svg">
<path d="M20.5198 7.09739C21.1947 8.63815 21.9468 10.407 22.7206 12.3216C25.3485 18.8237 28.147 26.8123 29.1143 33.2348C29.2884 34.3913 29.4622 35.5191 29.6319 36.6212C31.8851 51.2502 33.4388 61.3373 26.0665 73.6205C24.7952 75.7388 23.2405 76.5496 21.2865 77.5687C21.1779 77.6254 21.068 77.6827 20.9569 77.7409C19.9343 78.2765 18.6821 78.9573 17.606 80.0132C16.4693 81.1287 15.6227 82.5605 15.1667 84.4771C13.8634 89.9551 15.3302 95.0163 16.5989 99.3943C16.6883 99.7028 16.7767 100.008 16.8631 100.309C18.229 105.078 19.1964 109.203 17.6457 113.724C15.7943 119.122 10.0423 122.644 3.97342 124.829C1.03085 125.888 -1.79438 126.563 -3.89095 126.973C-4.10188 127.014 -4.30511 127.052 -4.5 127.088V113.776C-4.48282 113.768 -4.46553 113.761 -4.44813 113.753C-3.45947 113.306 -2.10528 112.647 -0.642052 111.799C2.18101 110.161 5.82671 107.583 7.72795 104.147C11.2375 97.8057 8.20796 91.6944 5.82405 86.9094L5.77952 86.82C3.16959 81.5816 1.15661 77.5413 2.60159 73.2963C3.69311 70.0897 5.73511 68.2781 8.35541 66.119C8.4695 66.025 8.58482 65.9303 8.70121 65.8347C11.2104 63.7732 14.2142 61.3054 16.0385 57.0432C18.6201 51.0117 18.1721 45.8531 17.39 41.0014C17.2652 40.2271 17.1338 39.4666 17.0038 38.7138C16.3117 34.7061 15.6571 30.9152 16.2209 26.4069C16.8486 21.3866 18.3777 15.0009 19.7773 9.79717C20.0324 8.84872 20.2821 7.94343 20.5198 7.09739Z" fill="#57B13A" stroke="#85DE68" stroke-width="5"/>
</svg>
