<svg width="39" height="131" viewBox="0 0 39 131" fill="none" xmlns="http://www.w3.org/2000/svg">
<path d="M8.5 117C3.97658 119.221 -2 124.5 -2 124.5V106C-2 106 8.35564 102.744 13 98C21.9834 88.824 19.1087 78.2934 18 65.5C16.9551 53.4421 11.4354 47.7417 8.5 36C5.56457 24.2583 3 5.5 3 5.5C3 5.5 14.6823 13.0817 20 20C26.3438 28.2531 27.6231 34.4959 30.5 44.5C36.0086 63.6557 38.7387 76.5695 32.5 95.5C30.1219 102.716 30.0909 108.459 24 113C18.9883 116.737 14.1117 114.245 8.5 117Z" fill="#57B13A" stroke="#85DE68" stroke-width="5"/>
</svg>
