<svg width="43" height="102" viewBox="0 0 43 102" fill="none" xmlns="http://www.w3.org/2000/svg">
<path d="M-2.5 69.148V95.2047C-2.256 94.8988 -2.00715 94.5834 -1.75497 94.2596C1.03561 90.6767 4.0761 86.2701 5.58382 82.5216C6.74968 79.6231 7.22877 77.2365 7.60661 74.7023C7.69232 74.1274 7.77388 73.5342 7.85833 72.9199C8.14326 70.8475 8.46105 68.5359 9.08199 65.8845C10.7438 58.7884 11.7124 54.7706 13.7607 47.7262C14.1455 46.4028 14.4918 45.1796 14.8207 44.0177C16.1852 39.1978 17.2509 35.4331 19.5302 29.9495C21.9658 24.09 23.4599 20.6456 26.9543 15.1444C29.3326 11.4002 32.9356 7.14975 35.8715 3.89907C36.1901 3.54631 36.502 3.20403 36.8051 2.87405C36.1589 2.9418 35.4823 3.02177 34.7852 3.11616C30.0928 3.7516 24.9299 4.98549 21.711 7.2086C16.9132 10.5222 15.1799 13.9599 12.6908 18.8967C11.9309 20.4039 11.1005 22.0507 10.0911 23.8764C4.53898 33.9175 2.55648 40.2111 0.0203209 51.5459C-0.728539 54.8927 -1.36193 59.3007 -1.81111 62.9257C-2.03429 64.7269 -2.20951 66.3141 -2.32888 67.4504C-2.38853 68.0183 -2.43417 68.473 -2.4648 68.7848C-2.48012 68.9406 -2.49168 69.0607 -2.49937 69.1413L-2.5 69.148Z" fill="#57B13A" stroke="#85DE68" stroke-width="5"/>
</svg>
