<svg width="40" height="172" viewBox="0 0 40 172" fill="none" xmlns="http://www.w3.org/2000/svg">
<path d="M14.5344 9.42339C14.8871 10.6693 15.2533 12.0108 15.6188 13.4206C17.5032 20.6907 19.3041 29.5475 19.2326 36.4742C19.183 41.2847 20.3704 44.8251 22.6101 47.2085C24.8439 49.5856 27.7645 50.4282 30.3819 50.6025C31.2465 50.6601 32.1026 50.6471 32.9269 50.5867C31.9322 51.9133 30.8585 53.4211 29.7893 55.0564C25.9955 60.8592 21.8809 68.8252 22.2354 76.1213C22.427 80.0638 23.8517 82.9148 25.0687 85.3504L25.0788 85.3705C26.3067 87.8279 27.3119 89.8547 27.5059 92.6717C28.0563 100.665 26.3977 105.404 22.516 112.844C21.4855 114.819 20.379 116.169 19.1183 117.667C19.0653 117.73 19.012 117.794 18.9584 117.857C17.733 119.313 16.3559 120.948 15.0511 123.279C11.9694 128.783 11.3992 133.816 10.8943 138.422L10.8823 138.531C10.3807 143.109 9.92701 147.249 7.51875 151.838C5.4631 155.756 1.87302 160.326 -1.30621 164.004C-1.80988 164.587 -2.29984 165.144 -2.76752 165.667V129.285L1.63709 110.198C1.65524 110.146 1.67829 110.08 1.70598 110C1.78082 109.785 1.88957 109.468 2.0272 109.061C2.30244 108.245 2.69336 107.064 3.15961 105.591C4.09166 102.645 5.32712 98.5228 6.54178 93.8134C8.95355 84.4628 11.3521 72.5429 10.9983 62.9083C10.8216 58.094 8.70571 55.0993 7.11353 52.8458C6.69235 52.2497 6.30782 51.7054 6.00552 51.1931C5.25622 49.9232 4.70035 48.5424 4.61169 46.5334C4.51995 44.4546 4.92351 41.5631 6.36768 37.3026C9.52516 27.9875 12.1001 18.8008 13.8844 11.9506C14.1142 11.0682 14.3311 10.2242 14.5344 9.42339Z" fill="#57B13A" stroke="#85DE68" stroke-width="5"/>
</svg>
