<svg width="32" height="114" viewBox="0 0 32 114" fill="none" xmlns="http://www.w3.org/2000/svg">
<path d="M-2.5 107.292C-0.529991 104.963 1.69887 102.248 3.34926 100.014C6.24369 96.0968 9.42481 92.5312 12.4127 89.1821L12.5329 89.0474C15.5872 85.6238 18.4115 82.4473 20.7137 79.2038C25.2402 72.8265 27.5582 66.4758 25.1588 58.1958C24.2088 54.9176 22.3395 52.8999 20.0486 50.4711L19.9765 50.3947C17.7277 48.0111 15.089 45.2141 13.8076 40.6799C12.4928 36.028 13.0109 31.0012 14.3446 26.2509C15.5407 21.9909 17.4368 17.7964 19.4789 14.034C17.3263 16.1764 15.3229 18.3856 13.7899 20.4777C12.8047 21.8221 11.8711 23.0429 10.9971 24.1858C6.82552 29.6408 4.01023 33.3221 3.4106 40.2166C3.08828 43.9226 4.81817 46.6351 7.05779 50.1468L7.09749 50.2091C9.25005 53.5844 11.886 57.7648 10.7739 63.4777C9.80344 68.4635 6.02125 73.2854 2.86167 76.6397C1.23055 78.3714 -0.341618 79.8215 -1.50517 80.8387C-1.88223 81.1683 -2.21772 81.4536 -2.5 81.6895V107.292Z" fill="#57B13A" stroke="#85DE68" stroke-width="5"/>
</svg>
