<svg width="27" height="87" viewBox="0 0 27 87" fill="none" xmlns="http://www.w3.org/2000/svg">
<path d="M22.1053 15.9271C22.187 16.3456 22.2672 16.7689 22.3457 17.1965C24.0635 26.5641 24.7984 37.4338 21.6856 45.0547C20.3929 48.2195 18.7243 50.5415 16.9995 52.9418C16.5395 53.5819 16.0756 54.2275 15.6137 54.8961C13.4477 58.0318 11.5 61.4987 11.5 66.5C11.5 67.7284 10.793 69.7447 9.4193 72.0321C8.09244 74.2414 6.3823 76.3082 4.87302 77.6019C1.82606 80.2135 -0.684166 81.9121 -2.5 82.983V70.5564C-2.38976 70.447 -2.26973 70.327 -2.14104 70.1972C-1.45153 69.5015 -0.507597 68.5179 0.512791 67.3626C2.50352 65.1088 4.97548 61.9919 6.28846 59.0065C7.43209 56.4061 7.63312 54.1547 7.79685 52.236L7.80148 52.1818C7.96315 50.2864 8.09469 48.7444 8.82114 46.9286C9.75906 44.5842 10.9983 43.0343 12.4817 41.2975C12.594 41.1659 12.7081 41.033 12.8237 40.8983C14.2337 39.2553 15.8653 37.3539 17.2352 34.6199C19.9253 29.2506 21.3443 22.1739 22.1053 15.9271Z" fill="#57B13A" stroke="#85DE68" stroke-width="5"/>
</svg>
