<svg width="200" height="64" viewBox="0 0 200 64" fill="none" xmlns="http://www.w3.org/2000/svg">
<rect width="200" height="64" fill="#1E1E1E"/>
<g id="&#209;&#141;&#208;&#186;&#209;&#128;&#208;&#176;&#208;&#189; 1 (&#208;&#183;&#208;&#176;&#208;&#179;&#209;&#128;&#209;&#131;&#208;&#183;&#208;&#186;&#208;&#176;)">
<rect width="390" height="844" transform="translate(-160 -76)" fill="#EDF5F9"/>
<g id="&#208;&#187;&#208;&#190;&#208;&#179;&#208;&#190;&#209;&#130;&#208;&#184;&#208;&#191; &#208;&#176;&#208;&#186;&#208;&#178;&#208;&#176;&#209;&#128;&#208;&#184;&#209;&#131;&#208;&#188;&#208;&#176; &#208;&#179;&#208;&#190;&#209;&#130;&#208;&#190;&#208;&#178;&#209;&#139;&#208;&#185; 2" clip-path="url(#clip0_0_1)">
<g id="&#208;&#178;&#208;&#181;&#209;&#128;&#209;&#133;&#208;&#189;&#208;&#184;&#208;&#185; &#209;&#130;&#208;&#181;&#208;&#186;&#209;&#129;&#209;&#130;">
<g id="&#209;&#130;&#208;&#181;&#208;&#187;&#208;&#181;&#208;&#188;&#208;&#186;&#208;&#190;&#208;&#191;">
<path id="Vector" d="M9.09808 2.93422V22.9326C9.09808 23.2499 8.98921 23.5254 8.77148 23.7509C8.55375 23.9763 8.27739 24.0932 7.94241 24.0932C7.60744 24.0932 7.36458 23.9847 7.15522 23.7509C6.94586 23.5254 6.84537 23.2582 6.84537 22.9326V2.93422H1.13406C0.81583 2.93422 0.547858 2.82567 0.330124 2.60022C0.112391 2.37477 0.00352478 2.09922 0.00352478 1.78192C0.00352478 1.46462 0.112391 1.19741 0.330124 0.980314C0.547858 0.763213 0.81583 0.654663 1.13406 0.654663H14.9853C15.3035 0.654663 15.5715 0.771563 15.7892 0.997014C16.0069 1.22247 16.1158 1.49802 16.1158 1.81532C16.1158 2.13262 16.0069 2.41652 15.7892 2.63362C15.5715 2.85072 15.3035 2.95092 14.9853 2.95092H9.10645L9.09808 2.93422Z" fill="#222221"/>
<path id="Vector_2" d="M26.2655 24.0848C25.9473 24.0598 25.6877 23.9345 25.4951 23.7091C25.3025 23.4836 25.202 23.2081 25.202 22.8908V1.79861C25.202 1.45625 25.3192 1.1807 25.5537 0.963603C25.7882 0.746502 26.0645 0.646301 26.3995 0.646301H36.8842C37.2024 0.646301 37.4704 0.754852 37.6965 0.971953C37.9226 1.18905 38.0231 1.4646 38.0231 1.79861C38.0231 2.13261 37.9143 2.39146 37.6965 2.61691C37.4788 2.84236 37.2024 2.95926 36.8842 2.95926H27.5217V11.2508H34.4305C34.7571 11.2425 35.0335 11.3427 35.2596 11.5681C35.4773 11.7936 35.5862 12.0691 35.5862 12.3864C35.5862 12.7038 35.4773 12.971 35.2596 13.1797C35.0419 13.3968 34.7655 13.497 34.4305 13.497H27.5217V21.7886H36.8842C37.2024 21.7886 37.4704 21.8971 37.6965 22.1142C37.9226 22.3313 38.0231 22.6069 38.0231 22.9158C38.0231 23.2248 37.9143 23.5254 37.6965 23.7508C37.4788 23.9763 37.2024 24.0848 36.8842 24.0681H26.2739L26.2655 24.0848Z" fill="#222221"/>
<path id="Vector_3" d="M55.9443 4.86305L47.9551 23.3918C47.8211 23.6924 47.6034 23.9011 47.2936 24.018C46.9837 24.1266 46.6906 24.1182 46.3975 23.9846C46.0877 23.851 45.8867 23.6339 45.7694 23.3417C45.6522 23.0494 45.6689 22.7488 45.8029 22.4482L54.8556 1.38944C54.9561 1.15564 55.1068 0.980286 55.3246 0.855036C55.5423 0.729785 55.7684 0.688035 56.0113 0.713085C56.2206 0.738135 56.4216 0.804935 56.6059 0.913486C56.7901 1.02204 56.9408 1.18069 57.0413 1.38944L66.2782 22.4482C66.4122 22.7488 66.4122 23.0578 66.2866 23.3584C66.161 23.659 65.9433 23.8761 65.6334 24.0097C65.3236 24.1349 65.0305 24.1349 64.7374 24.0264C64.4442 23.9178 64.2265 23.7091 64.0925 23.4001L55.9359 4.8714L55.9443 4.86305Z" fill="#222221"/>
<path id="Vector_4" d="M76.4781 24.0848C76.1599 24.0598 75.9003 23.9345 75.7077 23.7091C75.5151 23.4836 75.4146 23.2081 75.4146 22.8908V1.79861C75.4146 1.45625 75.5318 1.1807 75.7663 0.963603C76.0008 0.746502 76.2772 0.646301 76.6121 0.646301H87.0968C87.4151 0.646301 87.683 0.754852 87.9091 0.971953C88.1352 1.18905 88.2358 1.4646 88.2358 1.79861C88.2358 2.13261 88.1269 2.39146 87.9091 2.61691C87.6914 2.84236 87.4151 2.95926 87.0968 2.95926H77.7343V11.2508H84.6431C84.9697 11.2425 85.2461 11.3427 85.4722 11.5681C85.6899 11.7936 85.7988 12.0691 85.7988 12.3864C85.7988 12.7038 85.6899 12.971 85.4722 13.1797C85.2545 13.3968 84.9781 13.497 84.6431 13.497H77.7343V21.7886H87.0968C87.4151 21.7886 87.683 21.8971 87.9091 22.1142C88.1352 22.3313 88.2358 22.6069 88.2358 22.9158C88.2358 23.2248 88.1269 23.5254 87.9091 23.7508C87.6914 23.9763 87.4151 24.0848 87.0968 24.0681H76.4865L76.4781 24.0848Z" fill="#222221"/>
<path id="Vector_5" d="M115.98 4.82131C115.98 5.13026 115.871 5.39746 115.653 5.62291C115.419 5.84001 115.143 5.95691 114.816 5.96526C114.489 5.96526 114.221 5.86506 114.02 5.64796C113.049 4.69606 111.985 3.97796 110.805 3.502C109.632 3.02605 108.41 2.7839 107.154 2.7839C105.897 2.7839 104.583 3.0344 103.419 3.5354C102.246 4.03641 101.233 4.72111 100.362 5.58951C99.491 6.45792 98.8043 7.47662 98.3018 8.64563C97.7993 9.81463 97.5481 11.0671 97.5481 12.4031C97.5481 13.7391 97.791 14.9081 98.2767 16.0688C98.7624 17.2295 99.424 18.2482 100.278 19.1249C101.132 20.0017 102.137 20.7031 103.31 21.2208C104.482 21.7385 105.747 21.9973 107.12 21.9973C108.385 22.0057 109.59 21.7969 110.754 21.3544C111.919 20.9118 112.99 20.2104 113.97 19.2335C114.205 19.0164 114.481 18.8995 114.799 18.8911C115.118 18.8911 115.385 18.983 115.603 19.1917C115.838 19.4088 115.947 19.6844 115.947 20.0184C115.947 20.344 115.829 20.6196 115.628 20.82C114.431 22.014 113.099 22.8991 111.642 23.4669C110.185 24.0347 108.678 24.3186 107.12 24.3186C106.031 24.3186 104.976 24.1767 103.963 23.8844C102.95 23.6005 101.995 23.1997 101.116 22.682C100.236 22.1643 99.4323 21.5548 98.7121 20.82C97.9919 20.0935 97.3722 19.2919 96.8614 18.3985C96.3506 17.5134 95.9486 16.5615 95.6639 15.5511C95.3792 14.5407 95.2452 13.4803 95.2452 12.3864C95.2452 11.351 95.3792 10.3323 95.6471 9.33033C95.9151 8.32832 96.3003 7.38477 96.7944 6.50802C97.2885 5.63126 97.8915 4.81296 98.6033 4.06981C99.3151 3.32665 100.111 2.6837 100.998 2.1493C101.886 1.6149 102.849 1.1974 103.879 0.896794C104.909 0.596193 106.015 0.445892 107.179 0.445892C108.72 0.445892 110.227 0.746493 111.684 1.33935C113.15 1.94055 114.464 2.82565 115.645 3.99466C115.88 4.22846 115.997 4.49566 115.997 4.79626L115.98 4.82131Z" fill="#222221"/>
<path id="Vector_6" d="M127.712 11.8938L139.612 0.980314C139.855 0.746513 140.14 0.637963 140.45 0.663013C140.76 0.688063 141.028 0.804964 141.245 1.03876C141.463 1.27257 141.572 1.53977 141.572 1.85707C141.572 2.17437 141.446 2.44157 141.187 2.69207L132.997 10.1653L141.111 22.2896C141.304 22.5735 141.371 22.8658 141.304 23.1747C141.237 23.4837 141.078 23.7258 140.818 23.9012C140.55 24.0682 140.257 24.135 139.947 24.0849C139.638 24.0348 139.395 23.8678 139.219 23.5922L131.272 11.7602L127.712 15.0167V22.966C127.712 23.2833 127.595 23.5505 127.369 23.7676C127.143 23.9847 126.867 24.0932 126.548 24.0932C126.23 24.0932 125.954 23.9847 125.728 23.7676C125.502 23.5505 125.384 23.2833 125.384 22.966V1.78192C125.384 1.46462 125.493 1.19741 125.728 0.980314C125.954 0.763213 126.23 0.654663 126.548 0.654663C126.867 0.654663 127.143 0.763213 127.369 0.980314C127.595 1.19741 127.712 1.47297 127.712 1.78192V11.8938Z" fill="#222221"/>
<path id="Vector_7" d="M166.101 1.41452C167.549 2.04078 168.822 2.89248 169.903 3.96963C170.983 5.04679 171.845 6.30764 172.473 7.7522C173.102 9.19676 173.42 10.7332 173.42 12.3865C173.42 13.4887 173.277 14.5491 172.984 15.5678C172.7 16.5865 172.298 17.5384 171.778 18.4152C171.268 19.2919 170.639 20.1019 169.903 20.8284C169.166 21.5548 168.362 22.1811 167.482 22.6988C166.603 23.2165 165.648 23.6089 164.627 23.9012C163.605 24.1851 162.541 24.3354 161.444 24.3354C160.347 24.3354 159.284 24.1934 158.262 23.9012C157.241 23.6173 156.286 23.2165 155.407 22.6988C154.527 22.1811 153.723 21.5632 153.003 20.8284C152.283 20.0935 151.663 19.2919 151.152 18.4152C150.642 17.5384 150.24 16.5865 149.955 15.5678C149.67 14.5491 149.536 13.4887 149.536 12.3865C149.536 11.2843 149.678 10.2322 149.955 9.22181C150.231 8.21145 150.633 7.25955 151.152 6.3828C151.663 5.50604 152.283 4.70444 153.003 3.97798C153.723 3.25153 154.527 2.63363 155.407 2.10758C156.286 1.58988 157.241 1.18907 158.262 0.905173C159.284 0.621271 160.347 0.487671 161.444 0.487671C163.094 0.487671 164.652 0.796622 166.101 1.42287V1.41452ZM157.693 3.56048C156.52 4.06149 155.507 4.74619 154.644 5.61459C153.782 6.483 153.095 7.49335 152.593 8.654C152.09 9.81466 151.839 11.0588 151.839 12.3865C151.839 13.7141 152.09 14.9833 152.593 16.1523C153.095 17.3213 153.774 18.3317 154.644 19.2001C155.507 20.0685 156.52 20.7532 157.693 21.2542C158.865 21.7552 160.121 22.0057 161.47 22.0057C162.818 22.0057 164.057 21.7552 165.221 21.2542C166.385 20.7532 167.407 20.0685 168.278 19.2001C169.149 18.3317 169.836 17.313 170.338 16.1523C170.84 14.9917 171.092 13.7308 171.092 12.3865C171.092 11.0421 170.84 9.81466 170.338 8.654C169.836 7.49335 169.149 6.483 168.278 5.61459C167.407 4.74619 166.394 4.06149 165.221 3.56048C164.049 3.05948 162.801 2.80898 161.47 2.80898C160.138 2.80898 158.865 3.05948 157.693 3.56048Z" fill="#222221"/>
<path id="Vector_8" d="M199.347 22.9158C199.347 23.2415 199.23 23.5254 198.995 23.7508C198.761 23.9763 198.484 24.0932 198.166 24.0932C197.848 24.0932 197.563 23.9846 197.345 23.7508C197.128 23.5254 197.027 23.2498 197.027 22.9158V3.00936H185.144V22.9158C185.144 23.2415 185.035 23.5254 184.826 23.7508C184.608 23.9763 184.348 24.0932 184.03 24.0932C183.712 24.0932 183.419 23.9846 183.184 23.7508C182.95 23.5254 182.833 23.2498 182.833 22.9158V1.74851C182.833 1.69006 182.841 1.60655 182.866 1.50635C182.941 1.2642 183.075 1.05545 183.276 0.896802C183.477 0.729802 183.72 0.646301 184.005 0.646301H198.216C198.509 0.671351 198.761 0.788252 198.978 0.997003C199.196 1.20575 199.313 1.45625 199.338 1.74851V22.9158H199.347Z" fill="#222221"/>
</g>
<g id="&#208;&#176;&#208;&#186;&#208;&#178;&#208;&#176;&#209;&#128;&#208;&#184;&#209;&#131;&#208;&#188;">
<path id="Vector_9" d="M15.7055 56.0989H5.14539L2.33161 62.7288C2.19762 63.0294 1.97988 63.2465 1.68678 63.3634C1.39367 63.4803 1.08382 63.4719 0.765593 63.3383C0.455742 63.2047 0.263139 62.9876 0.171021 62.6954C0.0789026 62.4031 0.104027 62.1109 0.238017 61.8186L9.39957 40.6847C9.60893 40.2171 9.96064 39.9916 10.4631 39.9916C10.6976 39.9916 10.9069 40.0501 11.0912 40.1753C11.2754 40.3006 11.4178 40.4676 11.5099 40.6847L20.6212 61.8186C20.7552 62.1276 20.7803 62.4198 20.6882 62.7037C20.5961 62.9876 20.4035 63.2047 20.1104 63.3383C19.8173 63.4719 19.5158 63.4803 19.2143 63.3634C18.9045 63.2465 18.6867 63.0461 18.5527 62.7538L15.7055 56.1072V56.0989ZM6.11681 53.7942H14.7257L10.4129 43.6657L6.11681 53.7942Z" fill="#68A7DD"/>
<path id="Vector_10" d="M30.9887 51.2308L42.8886 40.3173C43.1315 40.0835 43.4162 39.975 43.7261 40C44.0359 40.0251 44.3039 40.142 44.5216 40.3758C44.7394 40.6096 44.8482 40.8768 44.8482 41.1941C44.8482 41.5114 44.7226 41.7786 44.463 42.0291L36.2729 49.5024L44.3876 61.6266C44.5803 61.9105 44.6472 62.2028 44.5803 62.5117C44.5133 62.8207 44.3541 63.0628 44.0945 63.2382C43.8266 63.4052 43.5335 63.472 43.2236 63.4219C42.9138 63.3718 42.6709 63.2048 42.495 62.9292L34.5478 51.0972L30.9887 54.3537V62.303C30.9887 62.6203 30.8714 62.8875 30.6453 63.1046C30.4192 63.3217 30.1429 63.4302 29.8246 63.4302C29.5064 63.4302 29.23 63.3217 29.0039 63.1046C28.7778 62.8875 28.6606 62.6203 28.6606 62.303V41.1356C28.6606 40.8183 28.7695 40.5511 29.0039 40.334C29.23 40.1169 29.5064 40.0084 29.8246 40.0084C30.1429 40.0084 30.4192 40.1169 30.6453 40.334C30.8714 40.5511 30.9887 40.8267 30.9887 41.1356V51.2475V51.2308Z" fill="#68A7DD"/>
<path id="Vector_11" d="M54.4536 63.4218C54.1354 63.4218 53.859 63.3133 53.6329 63.0962C53.4068 62.8791 53.2896 62.6119 53.2896 62.2946V41.1272C53.2896 40.8016 53.3985 40.526 53.6329 40.3089C53.859 40.0918 54.1354 39.9916 54.4536 39.9916H60.793C61.6388 39.9916 62.426 40.1586 63.163 40.4759C63.8999 40.7932 64.5447 41.2358 65.0891 41.7869C65.6418 42.338 66.0689 42.981 66.3871 43.7158C66.6969 44.4589 66.8561 45.2438 66.8561 46.0872C66.8561 47.0892 66.63 48.0077 66.1861 48.8427C65.7423 49.6777 65.1393 50.3707 64.394 50.9218C64.9216 51.2057 65.3989 51.5481 65.826 51.9489C66.2531 52.3497 66.6216 52.8006 66.9314 53.3016C67.2413 53.8026 67.4758 54.3453 67.6516 54.9298C67.8191 55.5144 67.9112 56.1323 67.9112 56.7752C67.9112 57.7271 67.727 58.6122 67.3669 59.4222C67.0068 60.2321 66.5127 60.9335 65.8846 61.5264C65.2566 62.1192 64.528 62.5785 63.6822 62.9208C62.8364 63.2548 61.9319 63.4218 60.9605 63.4218H54.462H54.4536ZM55.6093 42.2879V50.0701H60.6255C61.1866 50.0701 61.7058 49.9616 62.1832 49.7445C62.6605 49.5274 63.0708 49.2351 63.4226 48.8677C63.7743 48.5003 64.0423 48.0828 64.2433 47.6152C64.4442 47.1476 64.5364 46.6633 64.5364 46.1623C64.5364 45.6613 64.4359 45.177 64.2433 44.7178C64.0506 44.2585 63.7743 43.841 63.4226 43.482C63.0708 43.1229 62.6689 42.8307 62.1999 42.6219C61.7309 42.4048 61.2285 42.3046 60.6758 42.3046H55.6093V42.2879ZM55.6093 52.1576V61.1089H60.8768C61.5467 61.1089 62.1748 60.9836 62.7526 60.7415C63.3304 60.4993 63.8245 60.1737 64.2433 59.7645C64.662 59.3554 64.9886 58.8794 65.2231 58.3367C65.4575 57.7939 65.5832 57.2178 65.5832 56.6082C65.5832 55.9986 65.4659 55.4058 65.2231 54.863C64.9802 54.3203 64.6536 53.8443 64.2349 53.4435C63.8162 53.0427 63.3137 52.7254 62.7275 52.5C62.1497 52.2745 61.5216 52.1576 60.8433 52.1576H55.6093Z" fill="#68A7DD"/>
<path id="Vector_12" d="M90.3796 56.0989H79.8196L77.0058 62.7288C76.8718 63.0294 76.6541 63.2465 76.361 63.3634C76.0679 63.4803 75.758 63.4719 75.4398 63.3383C75.1299 63.2047 74.9373 62.9876 74.8452 62.6954C74.7531 62.4031 74.7782 62.1109 74.9122 61.8186L84.0738 40.6847C84.2831 40.2171 84.6348 39.9916 85.1373 39.9916C85.3718 39.9916 85.5811 40.0501 85.7654 40.1753C85.9496 40.3006 86.092 40.4676 86.1841 40.6847L95.2954 61.8186C95.4294 62.1276 95.4545 62.4198 95.3624 62.7037C95.2703 62.9876 95.0777 63.2047 94.7846 63.3383C94.4915 63.4719 94.19 63.4803 93.8885 63.3634C93.5787 63.2465 93.3609 63.0461 93.2269 62.7538L90.3796 56.1072V56.0989ZM80.791 53.7942H89.3998L85.087 43.6657L80.791 53.7942Z" fill="#68A7DD"/>
<path id="Vector_13" d="M105.654 53.335V62.2863C105.654 62.6036 105.537 62.8708 105.311 63.0879C105.085 63.305 104.809 63.4135 104.49 63.4135C104.172 63.4135 103.896 63.305 103.67 63.0879C103.444 62.8708 103.326 62.6036 103.326 62.2863V41.1189C103.326 40.7933 103.435 40.5177 103.67 40.3006C103.896 40.0835 104.172 39.9833 104.49 39.9833H110.662C111.625 39.9833 112.538 40.1503 113.384 40.4927C114.23 40.835 114.967 41.3026 115.586 41.9038C116.215 42.505 116.7 43.2064 117.069 44.0248C117.429 44.8431 117.613 45.7282 117.613 46.6801C117.613 47.632 117.429 48.5171 117.069 49.327C116.709 50.137 116.215 50.8384 115.586 51.4312C114.958 52.0241 114.23 52.4833 113.384 52.8257C112.538 53.1597 111.634 53.3267 110.662 53.3267H105.646L105.654 53.335ZM105.654 42.2545V51.0221H110.687C111.349 51.0221 111.96 50.9052 112.521 50.663C113.083 50.4209 113.568 50.1036 113.979 49.7028C114.389 49.302 114.707 48.8344 114.942 48.3C115.176 47.7656 115.293 47.2145 115.293 46.6216C115.293 45.9954 115.176 45.4192 114.933 44.8932C114.69 44.3671 114.372 43.8995 113.962 43.5071C113.551 43.1146 113.066 42.8056 112.496 42.5802C111.927 42.3547 111.307 42.2378 110.654 42.2378H105.663L105.654 42.2545Z" fill="#68A7DD"/>
<path id="Vector_14" d="M130.15 62.9626C130.099 63.0377 130.041 63.0962 129.965 63.1463C129.781 63.3049 129.547 63.3968 129.27 63.4218H129.119C129.061 63.4218 129.019 63.4218 128.994 63.4051C128.709 63.355 128.483 63.2298 128.316 63.021C128.148 62.8123 128.056 62.5701 128.056 62.2862V41.1356C128.056 40.8183 128.165 40.5511 128.374 40.3173C128.592 40.0918 128.86 39.9749 129.195 39.9749C129.53 39.9749 129.806 40.0918 130.032 40.3173C130.258 40.5427 130.376 40.8183 130.376 41.1356V58.8043L143.197 40.6012C143.281 40.4425 143.398 40.3173 143.549 40.2171C143.699 40.1169 143.858 40.0584 144.043 40.0334C144.076 40.025 144.135 40.0167 144.21 40.0167C144.528 40.0167 144.805 40.1252 145.031 40.3423C145.257 40.5594 145.374 40.8266 145.374 41.144V62.2779C145.374 62.5952 145.257 62.8624 145.031 63.0795C144.805 63.2966 144.528 63.4051 144.21 63.4051C143.892 63.4051 143.615 63.2966 143.389 63.0795C143.163 62.8624 143.046 62.5952 143.046 62.2779V44.6092L130.158 62.9542L130.15 62.9626Z" fill="#68A7DD"/>
<path id="Vector_15" d="M160.95 54.0114L166.771 40.7014C166.904 40.4092 167.122 40.2004 167.424 40.0752C167.725 39.9499 168.018 39.9499 168.311 40.0752C168.604 40.2004 168.814 40.4092 168.948 40.7181C169.073 41.0271 169.073 41.3277 168.939 41.6366L162.273 56.5414L161.964 57.2762C161.461 58.3868 160.975 59.3387 160.498 60.1403C160.021 60.9419 159.493 61.5932 158.924 62.1026C158.354 62.6119 157.709 62.9793 156.989 63.2131C156.269 63.4469 155.423 63.5471 154.452 63.5221C154.134 63.5221 153.857 63.4302 153.623 63.2382C153.388 63.0461 153.271 62.7956 153.271 62.4783C153.271 62.136 153.388 61.8521 153.623 61.6266C153.857 61.4012 154.134 61.2926 154.452 61.2926C154.51 61.2926 154.561 61.2926 154.603 61.3093C155.314 61.3344 155.917 61.2676 156.428 61.1006C156.939 60.9336 157.374 60.6747 157.751 60.324C158.128 59.9733 158.463 59.5224 158.765 58.9796C159.066 58.4369 159.376 57.7939 159.694 57.0675L159.803 56.8337L152.676 41.6533C152.542 41.3527 152.542 41.0438 152.668 40.7348C152.794 40.4342 153.011 40.2171 153.321 40.0919C153.606 39.9666 153.891 39.9666 154.192 40.0919C154.494 40.2171 154.711 40.4175 154.845 40.7181L160.959 54.0281L160.95 54.0114Z" fill="#68A7DD"/>
<path id="Vector_16" d="M179.366 45.5361L177.121 62.3781C177.071 62.6954 176.92 62.9459 176.669 63.1296C176.418 63.3133 176.133 63.3885 175.815 63.3467C175.497 63.2883 175.245 63.1296 175.053 62.8875C174.86 62.6453 174.793 62.3614 174.843 62.0441L177.632 41.0939C177.666 40.81 177.783 40.5845 177.984 40.4175C178.084 40.3173 178.218 40.2255 178.386 40.142C178.671 40.0167 178.955 40.0167 179.257 40.1336C179.558 40.2505 179.776 40.4509 179.91 40.7432L187.497 59.3137L195.084 40.7432C195.21 40.4593 195.411 40.2589 195.687 40.142C195.964 40.0251 196.265 40.0167 196.567 40.142L196.768 40.2505C196.918 40.3507 197.036 40.4676 197.136 40.6096C197.236 40.7515 197.295 40.9102 197.32 41.0939L199.983 62.0775C200.017 62.3948 199.941 62.6787 199.749 62.9209C199.556 63.163 199.297 63.305 198.978 63.3384C198.66 63.3718 198.375 63.2966 198.124 63.1129C197.873 62.9292 197.731 62.6704 197.689 62.3531L195.562 45.6196L188.544 62.7622C188.435 63.0044 188.276 63.1881 188.067 63.3133C187.857 63.4386 187.639 63.4803 187.405 63.4636C187.196 63.4469 187.003 63.3885 186.827 63.2716C186.651 63.1547 186.509 62.9877 186.417 62.7706L179.366 45.5444V45.5361Z" fill="#68A7DD"/>
</g>
</g>
</g>
</g>
<defs>
<clipPath id="clip0_0_1">
<rect width="330" height="125" fill="white" transform="translate(-130 -10)"/>
</clipPath>
</defs>
</svg>
