<svg width="127" height="30" viewBox="0 0 127 30" fill="none" xmlns="http://www.w3.org/2000/svg">
<path d="M21.1936 7.19607C21.1936 6.66167 21.2941 6.15232 21.5034 5.67637C21.7044 5.20042 21.9892 4.79126 22.3409 4.44056C22.6926 4.08986 23.1113 3.81431 23.5803 3.61391C24.0576 3.41351 24.5601 3.30496 25.0877 3.30496C25.6153 3.30496 26.1177 3.40516 26.5867 3.60556C27.0556 3.80596 27.466 4.08151 27.8177 4.42386C28.1694 4.76621 28.4458 5.17537 28.6468 5.64297C28.8478 6.11057 28.9566 6.61157 28.9734 7.13762V10.4442C28.9734 10.5862 28.9231 10.7198 28.8226 10.82C28.7221 10.9202 28.5965 10.9786 28.4541 10.9786C28.3118 10.9786 28.1862 10.9285 28.0941 10.82C28.0019 10.7198 27.9517 10.5945 27.9517 10.4442V9.74284C27.5832 10.1353 27.1645 10.4609 26.6704 10.7031C26.1847 10.9452 25.6571 11.0705 25.0877 11.0705C24.5517 11.0705 24.0492 10.9703 23.5803 10.7615C23.1113 10.5611 22.6926 10.2856 22.3409 9.93488C21.9892 9.58418 21.7044 9.17503 21.5034 8.69908C21.3025 8.22313 21.1936 7.72213 21.1936 7.19607ZM22.2236 7.19607C22.2236 7.58853 22.299 7.95593 22.4497 8.29828C22.6005 8.64063 22.8015 8.94123 23.0611 9.20008C23.3207 9.45893 23.6221 9.65933 23.9655 9.81798C24.3172 9.96829 24.6857 10.0434 25.096 10.0434C25.5064 10.0434 25.8749 9.96829 26.2266 9.81798C26.5783 9.66768 26.8798 9.45893 27.131 9.20008C27.3906 8.94123 27.5916 8.64063 27.734 8.29828C27.8763 7.95593 27.9517 7.58853 27.9517 7.19607C27.9517 6.80362 27.8763 6.42787 27.734 6.07717C27.5832 5.72647 27.3822 5.42587 27.131 5.16702C26.8714 4.90817 26.5699 4.70777 26.2266 4.55747C25.8749 4.40717 25.5064 4.33201 25.096 4.33201C24.6857 4.33201 24.3256 4.40717 23.9739 4.55747C23.6222 4.70777 23.3207 4.90817 23.0611 5.16702C22.8015 5.42587 22.6005 5.72647 22.4497 6.07717C22.299 6.42787 22.2236 6.79527 22.2236 7.19607Z" fill="#6F6E6E"/>
<path d="M33.2945 6.77855L36.5522 10.1102C36.6527 10.2188 36.7029 10.344 36.7029 10.486C36.7029 10.6279 36.6443 10.7448 36.5438 10.845C36.4433 10.9452 36.3177 10.987 36.1753 10.987C36.0329 10.987 35.9157 10.9285 35.8068 10.82L32.5492 7.4883L31.7118 8.28991V10.4526C31.7118 10.5945 31.6615 10.7198 31.561 10.82C31.4606 10.9202 31.3433 10.9703 31.201 10.9703C31.0586 10.9703 30.933 10.9202 30.8325 10.82C30.732 10.7198 30.6817 10.5945 30.6817 10.4526V3.83099C30.6817 3.68069 30.732 3.56379 30.8408 3.46359C30.9413 3.36339 31.067 3.31329 31.2093 3.31329C31.3517 3.31329 31.4689 3.36339 31.5694 3.46359C31.6699 3.56379 31.7202 3.68904 31.7202 3.83099V6.87876L35.4635 3.31329C35.5724 3.21309 35.698 3.16299 35.8403 3.17134C35.9827 3.17969 36.0999 3.22979 36.2004 3.33834C36.3009 3.44689 36.3428 3.57214 36.3344 3.71409C36.326 3.85604 36.2674 3.97294 36.1586 4.07314L33.3029 6.7869L33.2945 6.77855Z" fill="#6F6E6E"/>
<path d="M38.361 10.9786C38.2186 10.9786 38.1014 10.9285 38.0009 10.8283C37.9004 10.7281 37.8502 10.6112 37.8502 10.4693V3.82266C37.8502 3.68071 37.9004 3.55546 38.0009 3.45526C38.1014 3.35506 38.2186 3.30496 38.361 3.30496H41.2083C41.493 3.30496 41.7694 3.35506 42.029 3.44691C42.2886 3.53876 42.5147 3.68071 42.7073 3.85606C42.8999 4.03141 43.0506 4.24016 43.1679 4.49067C43.2767 4.74117 43.3354 5.00836 43.3354 5.30897C43.3354 5.65132 43.2516 5.95192 43.0841 6.21912C42.9166 6.48632 42.6989 6.70343 42.4226 6.87878C42.6152 6.96228 42.7994 7.06247 42.9585 7.19607C43.126 7.32968 43.26 7.47162 43.3772 7.63863C43.4945 7.80563 43.5866 7.98933 43.6452 8.18138C43.7038 8.38178 43.7373 8.59053 43.7373 8.80763C43.7373 9.13328 43.6787 9.42553 43.5615 9.69273C43.4442 9.95993 43.2768 10.1854 43.0674 10.3774C42.858 10.5695 42.6068 10.7114 42.3137 10.82C42.0206 10.9202 41.7107 10.9786 41.3841 10.9786H38.361ZM38.8802 4.27356V6.60322H41.2083C41.3758 6.60322 41.5349 6.57817 41.6772 6.51972C41.8196 6.46127 41.9452 6.38612 42.0541 6.28592C42.163 6.18572 42.2467 6.06882 42.3053 5.92687C42.3639 5.78492 42.3974 5.62627 42.3974 5.45092C42.3974 5.28392 42.3723 5.13362 42.3137 4.99167C42.2551 4.84972 42.1797 4.72447 42.0792 4.61592C41.9787 4.50737 41.8531 4.42386 41.7024 4.36541C41.5516 4.30696 41.3841 4.27356 41.1915 4.27356H38.8886H38.8802ZM38.8802 7.37142V9.99334H41.4176C41.627 9.99334 41.8112 9.95993 41.9787 9.90148C42.1462 9.84303 42.297 9.75119 42.4142 9.64264C42.5398 9.53408 42.6319 9.40048 42.6989 9.25018C42.7659 9.09988 42.7994 8.92453 42.7994 8.74083C42.7994 8.55713 42.7659 8.38178 42.6989 8.21478C42.6319 8.04778 42.5398 7.90583 42.4142 7.78057C42.297 7.65532 42.1462 7.55513 41.9787 7.47998C41.8112 7.40483 41.6186 7.37142 41.4176 7.37142H38.8802Z" fill="#6F6E6E"/>
<path d="M44.2817 7.19607C44.2817 6.66167 44.3822 6.15232 44.5915 5.67637C44.7925 5.20042 45.0772 4.79126 45.429 4.44056C45.7807 4.08986 46.1994 3.81431 46.6684 3.61391C47.1457 3.41351 47.6482 3.30496 48.1757 3.30496C48.7033 3.30496 49.2058 3.40516 49.6748 3.60556C50.1437 3.80596 50.5541 4.08151 50.9058 4.42386C51.2575 4.76621 51.5339 5.17537 51.7348 5.64297C51.9358 6.11057 52.0447 6.61157 52.0614 7.13762V10.4442C52.0614 10.5862 52.0112 10.7198 51.9107 10.82C51.8102 10.9202 51.6846 10.9786 51.5422 10.9786C51.3999 10.9786 51.2743 10.9285 51.1821 10.82C51.09 10.7198 51.0398 10.5945 51.0398 10.4442V9.74284C50.6713 10.1353 50.2526 10.4609 49.7585 10.7031C49.2728 10.9452 48.7452 11.0705 48.1757 11.0705C47.6398 11.0705 47.1373 10.9703 46.6684 10.7615C46.1994 10.5611 45.7807 10.2856 45.429 9.93488C45.0772 9.58418 44.7925 9.17503 44.5915 8.69908C44.3905 8.22313 44.2817 7.72213 44.2817 7.19607ZM45.3117 7.19607C45.3117 7.58853 45.3871 7.95593 45.5378 8.29828C45.6886 8.64063 45.8895 8.94123 46.1491 9.20008C46.4088 9.45893 46.7102 9.65933 47.0536 9.81798C47.4053 9.96829 47.7738 10.0434 48.1841 10.0434C48.5945 10.0434 48.9629 9.96829 49.3147 9.81798C49.6664 9.66768 49.9679 9.45893 50.2191 9.20008C50.4787 8.94123 50.6797 8.64063 50.822 8.29828C50.9644 7.95593 51.0398 7.58853 51.0398 7.19607C51.0398 6.80362 50.9644 6.42787 50.822 6.07717C50.6713 5.72647 50.4703 5.42587 50.2191 5.16702C49.9595 4.90817 49.658 4.70777 49.3147 4.55747C48.9629 4.40717 48.5945 4.33201 48.1841 4.33201C47.7738 4.33201 47.4137 4.40717 47.062 4.55747C46.7102 4.70777 46.4088 4.90817 46.1491 5.16702C45.8895 5.42587 45.6886 5.72647 45.5378 6.07717C45.3871 6.42787 45.3117 6.79527 45.3117 7.19607Z" fill="#6F6E6E"/>
<path d="M54.557 4.57418C54.9171 4.18173 55.3442 3.87278 55.8299 3.64733C56.3156 3.42188 56.8516 3.31332 57.4211 3.31332C57.957 3.31332 58.4679 3.41353 58.9368 3.62228C59.4058 3.82268 59.8161 4.09823 60.1679 4.44893C60.5196 4.79963 60.7959 5.20879 60.9969 5.68474C61.1979 6.16069 61.3068 6.67004 61.3068 7.20444C61.3068 7.73885 61.2063 8.23984 60.9969 8.70745C60.7959 9.17505 60.5112 9.59255 60.1679 9.94325C59.8161 10.294 59.4058 10.5695 58.9368 10.7699C58.4679 10.9703 57.957 11.0789 57.4211 11.0789C56.8516 11.0789 56.3156 10.9703 55.8299 10.7449C55.3442 10.5194 54.9171 10.2188 54.557 9.82635V13.2248C54.557 13.3668 54.5068 13.4837 54.4063 13.5839C54.3058 13.6841 54.1886 13.7342 54.0462 13.7342C53.9038 13.7342 53.7866 13.6841 53.6861 13.5839C53.5856 13.4837 53.5354 13.3668 53.5354 13.2248V3.81432C53.5354 3.67237 53.5856 3.54713 53.6861 3.45528C53.7866 3.36343 53.9038 3.31332 54.0462 3.31332C54.1886 3.31332 54.3058 3.36343 54.4063 3.45528C54.5068 3.54713 54.557 3.67237 54.557 3.81432V4.57418ZM54.557 7.20444C54.557 7.59689 54.6324 7.9643 54.7831 8.30665C54.9339 8.649 55.1349 8.9496 55.3945 9.20845C55.6541 9.4673 55.9555 9.6677 56.2989 9.82635C56.6506 9.97665 57.0191 10.0518 57.4294 10.0518C57.8398 10.0518 58.2083 9.97665 58.56 9.82635C58.9117 9.67605 59.2132 9.4673 59.4728 9.20845C59.7324 8.9496 59.9334 8.649 60.0841 8.30665C60.2349 7.9643 60.3019 7.59689 60.3019 7.20444C60.3019 6.81199 60.2265 6.43624 60.0841 6.08554C59.9334 5.73483 59.7324 5.43424 59.4728 5.17538C59.2132 4.91653 58.9117 4.71613 58.56 4.56583C58.2083 4.41553 57.8398 4.34038 57.4294 4.34038C57.0191 4.34038 56.659 4.41553 56.3157 4.56583C55.9639 4.71613 55.6625 4.91653 55.4028 5.17538C55.1432 5.43424 54.9423 5.73483 54.7915 6.08554C54.6408 6.43624 54.5654 6.80364 54.5654 7.20444H54.557Z" fill="#6F6E6E"/>
<path d="M62.5545 3.83935C62.5545 3.68905 62.6048 3.5638 62.7053 3.4636C62.8058 3.35505 62.9314 3.30495 63.0821 3.30495C63.2329 3.30495 63.3668 3.35505 63.4506 3.4636C63.5343 3.57215 63.5846 3.6974 63.5846 3.83935V9.09153L68.0649 3.5137C68.1067 3.45525 68.157 3.4135 68.2156 3.3801H68.224C68.3161 3.33 68.4166 3.30495 68.5171 3.3133C68.6176 3.3133 68.7181 3.35505 68.8018 3.4302C68.9191 3.5304 68.9777 3.6473 68.9693 3.78925C68.9609 3.9312 68.9107 4.05645 68.8186 4.165L68.0146 5.15865V3.831C68.0146 3.73915 68.0314 3.65565 68.0649 3.57215C68.0984 3.48865 68.1486 3.4302 68.2156 3.3801H68.224C68.3077 3.32165 68.3915 3.2966 68.4752 3.2966C68.6259 3.2966 68.7432 3.3467 68.8521 3.45525C68.9525 3.5638 69.0028 3.6807 69.0028 3.82265V10.4359C69.0028 10.5778 68.9525 10.7114 68.8521 10.8116C68.7516 10.9118 68.6259 10.9703 68.4836 10.9703C68.3412 10.9703 68.2324 10.9202 68.1486 10.8116C68.0649 10.7114 68.023 10.5862 68.023 10.4359V5.14196L63.5176 10.7448C63.5176 10.7448 63.459 10.8033 63.4338 10.8283C63.4087 10.8534 63.3752 10.8701 63.3501 10.8951C63.2664 10.9452 63.1826 10.9703 63.0821 10.9703C62.9314 10.9703 62.8058 10.9202 62.7053 10.8116C62.6048 10.7114 62.5545 10.5862 62.5545 10.4359V3.831V3.83935Z" fill="#6F6E6E"/>
<path d="M73.5333 9.26687L76.0121 3.6306C76.0707 3.497 76.1712 3.40514 76.2969 3.34669C76.4308 3.28824 76.5565 3.28824 76.6905 3.34669C76.8244 3.40514 76.9165 3.50535 76.9668 3.6306C77.017 3.75585 77.0087 3.8978 76.9501 4.03975L73.9855 10.6864L73.9604 10.7532L72.7461 13.4836C72.6875 13.6172 72.587 13.7091 72.453 13.7675C72.319 13.826 72.185 13.8176 72.051 13.7592C71.9171 13.7007 71.8417 13.6089 71.8082 13.4836C71.7747 13.3584 71.7914 13.2248 71.85 13.0828L72.9806 10.4943L70.1249 4.0314C70.0663 3.8978 70.0579 3.7642 70.1082 3.6306C70.1584 3.497 70.2505 3.40514 70.3845 3.34669C70.5185 3.28824 70.6441 3.28824 70.7781 3.34669C70.9121 3.40514 71.0043 3.497 71.0629 3.6306L73.5249 9.26687H73.5333Z" fill="#6F6E6E"/>
<path d="M81.9412 9.28356L84.3697 3.63059C84.4284 3.49699 84.5288 3.40513 84.6545 3.34668C84.7885 3.28823 84.9141 3.28823 85.0481 3.34668C85.1151 3.38843 85.1653 3.42184 85.1988 3.45524C85.2993 3.53039 85.3579 3.63059 85.383 3.76419L86.1367 10.3524C86.1619 10.4943 86.1367 10.6196 86.0446 10.7365C85.9609 10.8534 85.8436 10.9285 85.7013 10.9536C85.5589 10.9786 85.4333 10.9536 85.3244 10.8617C85.2156 10.7782 85.1485 10.6613 85.1234 10.5194L84.5791 5.72644L82.4269 10.6697C82.4269 10.6697 82.3934 10.7365 82.3766 10.7615C82.3599 10.7949 82.3348 10.82 82.3097 10.8367C82.2762 10.8701 82.2343 10.9035 82.1673 10.9369C82.1003 10.9619 82.0333 10.9786 81.983 10.9786C81.9077 10.9786 81.8239 10.9786 81.7402 10.9369C81.6648 10.9035 81.6062 10.8617 81.5727 10.8116C81.5392 10.7615 81.5057 10.7114 81.4806 10.6697L79.3116 5.69304L78.7589 10.511C78.7338 10.653 78.6668 10.7699 78.5579 10.8534C78.4491 10.9452 78.3235 10.9703 78.1811 10.9452C78.0387 10.9202 77.9215 10.8534 77.8377 10.7281C77.754 10.6029 77.7205 10.4776 77.7456 10.3357L78.5077 3.76419C78.5328 3.61389 78.6082 3.49699 78.7254 3.42184C78.7505 3.39679 78.7924 3.36338 78.851 3.33833C78.985 3.27988 79.1106 3.27988 79.2446 3.33833C79.3786 3.39678 79.4707 3.48864 79.5294 3.62224L81.9579 9.27521L81.9412 9.28356Z" fill="#6F6E6E"/>
<path d="M88.5151 6.60322H93.054V3.83936C93.054 3.68906 93.1042 3.56381 93.1963 3.46361C93.2885 3.36341 93.4057 3.30496 93.5564 3.30496C93.7072 3.30496 93.8328 3.35506 93.9416 3.46361C94.0421 3.56381 94.1008 3.68906 94.1008 3.83936V10.4526C94.1008 10.5945 94.0422 10.7198 93.9333 10.82C93.8244 10.9202 93.6988 10.9703 93.5564 10.9703C93.4141 10.9703 93.2885 10.9202 93.1963 10.82C93.1042 10.7198 93.054 10.5945 93.054 10.4526V7.65533H88.5151V10.4526C88.5151 10.5945 88.4648 10.7198 88.3727 10.82C88.2806 10.9202 88.155 10.9703 88.021 10.9703C87.887 10.9703 87.7446 10.9202 87.6441 10.82C87.5436 10.7198 87.4934 10.5945 87.4934 10.4526V3.83936C87.4934 3.68906 87.5437 3.56381 87.6525 3.46361C87.7614 3.36341 87.887 3.30496 88.0294 3.30496C88.1717 3.30496 88.289 3.35506 88.3811 3.46361C88.4732 3.57216 88.5234 3.68906 88.5234 3.83936V6.60322H88.5151Z" fill="#6F6E6E"/>
<path d="M96.5795 10.9787C96.4288 10.9787 96.3116 10.9286 96.2111 10.8284C96.1106 10.7282 96.0603 10.6029 96.0603 10.461V3.83938C96.0603 3.68908 96.1106 3.57218 96.2111 3.47198C96.3116 3.37178 96.4288 3.32168 96.5712 3.32168C96.7219 3.32168 96.8475 3.37178 96.948 3.47198C97.0485 3.57218 97.0988 3.68908 97.0988 3.83938V6.76189H99.6445C99.946 6.76189 100.222 6.82034 100.49 6.92889C100.75 7.04579 100.984 7.19609 101.177 7.39649C101.37 7.58854 101.529 7.82234 101.638 8.08119C101.747 8.34004 101.805 8.62394 101.805 8.9162C101.805 9.20845 101.747 9.49235 101.638 9.74285C101.529 9.99335 101.37 10.2105 101.177 10.3942C100.984 10.5779 100.75 10.7198 100.49 10.8284C100.222 10.9369 99.946 10.987 99.6445 10.987H96.5879L96.5795 10.9787ZM97.082 7.63864V10.0685H99.5189C99.7032 10.0685 99.8707 10.0351 100.021 9.9683C100.172 9.9015 100.306 9.80965 100.415 9.7011C100.524 9.59255 100.608 9.45895 100.675 9.317C100.733 9.17505 100.767 9.02475 100.767 8.8661C100.767 8.70745 100.733 8.55714 100.666 8.40684C100.599 8.25654 100.507 8.12295 100.398 8.0144C100.289 7.90585 100.147 7.80564 99.9963 7.73884C99.8372 7.67204 99.6697 7.63864 99.4938 7.63864H97.082ZM103.89 3.83103C103.89 3.68073 103.84 3.56383 103.74 3.46362C103.639 3.36342 103.522 3.31332 103.38 3.31332C103.237 3.31332 103.103 3.36342 103.003 3.46362C102.902 3.56383 102.844 3.68908 102.844 3.83103V10.4526C102.844 10.5946 102.894 10.7198 103.003 10.82C103.103 10.9202 103.229 10.9703 103.371 10.9703C103.514 10.9703 103.631 10.9202 103.731 10.82C103.832 10.7198 103.882 10.5946 103.882 10.4526V3.83103H103.89Z" fill="#6F6E6E"/>
<path d="M105.85 3.83938C105.85 3.68908 105.9 3.56383 106.001 3.46363C106.101 3.35508 106.227 3.30498 106.378 3.30498C106.528 3.30498 106.662 3.35508 106.746 3.46363C106.83 3.57218 106.88 3.69743 106.88 3.83938V9.09156L111.36 3.51373C111.402 3.45528 111.452 3.41353 111.511 3.38013H111.519C111.611 3.33003 111.712 3.30498 111.812 3.31333C111.913 3.31333 112.013 3.35508 112.097 3.43023C112.214 3.53043 112.273 3.64733 112.265 3.78928C112.256 3.93123 112.206 4.05648 112.114 4.16503L111.31 5.15868V3.83103C111.31 3.73918 111.327 3.65568 111.36 3.57218C111.394 3.48868 111.444 3.43023 111.511 3.38013H111.519C111.603 3.32168 111.687 3.29663 111.771 3.29663C111.921 3.29663 112.039 3.34673 112.147 3.45528C112.248 3.56383 112.298 3.68073 112.298 3.82268V10.4359C112.298 10.5779 112.248 10.7115 112.147 10.8117C112.047 10.9119 111.921 10.9703 111.779 10.9703C111.637 10.9703 111.528 10.9202 111.444 10.8117C111.36 10.7115 111.318 10.5862 111.318 10.4359V5.14199L106.813 10.7449C106.813 10.7449 106.754 10.8033 106.729 10.8284C106.704 10.8534 106.671 10.8701 106.645 10.8952C106.562 10.9453 106.478 10.9703 106.378 10.9703C106.227 10.9703 106.101 10.9202 106.001 10.8117C105.9 10.7115 105.85 10.5862 105.85 10.4359V3.83103V3.83938ZM110.422 0.374118C110.489 0.307318 110.573 0.265564 110.674 0.265564C110.782 0.265564 110.866 0.298968 110.942 0.374118C111.009 0.449269 111.042 0.532767 111.042 0.632968C111.042 0.866768 111 1.08387 110.908 1.29262C110.816 1.50137 110.699 1.67672 110.54 1.82702C110.38 1.97732 110.205 2.10257 110.004 2.18607C109.803 2.27792 109.577 2.31968 109.35 2.31968C109.124 2.31968 108.898 2.27792 108.689 2.18607C108.479 2.09422 108.304 1.97732 108.153 1.82702C108.002 1.67672 107.877 1.49302 107.793 1.29262C107.701 1.08387 107.659 0.866768 107.659 0.632968C107.659 0.532767 107.692 0.440919 107.768 0.374118C107.835 0.307318 107.918 0.265564 108.019 0.265564C108.119 0.265564 108.211 0.298968 108.278 0.374118C108.345 0.449269 108.387 0.532767 108.387 0.632968V0.666368C108.387 0.799969 108.421 0.916871 108.471 1.03377C108.521 1.15067 108.588 1.25087 108.672 1.33437C108.756 1.41787 108.856 1.48467 108.974 1.53477C109.091 1.58487 109.216 1.60992 109.35 1.60992C109.484 1.60992 109.61 1.58487 109.727 1.53477C109.844 1.48467 109.945 1.41787 110.037 1.33437C110.121 1.25087 110.196 1.15067 110.246 1.03377C110.297 0.916871 110.33 0.799969 110.33 0.666368V0.632968C110.33 0.532767 110.364 0.440919 110.431 0.374118H110.422Z" fill="#6F6E6E"/>
<path d="M0.684738 20.1138C0.684738 19.9635 0.734978 19.8383 0.835471 19.7381C0.935963 19.6295 1.06158 19.5794 1.21231 19.5794C1.36305 19.5794 1.49704 19.6295 1.58079 19.7381C1.66453 19.8466 1.71478 19.9719 1.71478 20.1138V25.366L6.19507 19.7882C6.23694 19.7297 6.28718 19.688 6.3458 19.6546H6.35417C6.44629 19.6045 6.54679 19.5794 6.64728 19.5878C6.74777 19.5878 6.84826 19.6295 6.932 19.7047C7.04925 19.8049 7.10786 19.9218 7.09949 20.0637C7.09111 20.2057 7.04087 20.3309 6.94876 20.4395L6.14481 21.4331V20.1055C6.14481 20.0136 6.16157 19.9301 6.19507 19.8466C6.22857 19.7631 6.27881 19.7047 6.3458 19.6546H6.35417C6.43791 19.5961 6.52166 19.5711 6.6054 19.5711C6.75614 19.5711 6.87338 19.6211 6.98225 19.7297C7.08274 19.8383 7.13299 19.9552 7.13299 20.0971V26.7103C7.13299 26.8523 7.08274 26.9859 6.98225 27.0861C6.88176 27.1863 6.75615 27.2447 6.61379 27.2447C6.47142 27.2447 6.36255 27.1946 6.27881 27.0861C6.19506 26.9859 6.15319 26.8606 6.15319 26.7103V21.4164L1.64778 27.0193C1.64778 27.0193 1.58916 27.0777 1.56404 27.1028C1.53891 27.1278 1.50542 27.1445 1.4803 27.1696C1.39656 27.2197 1.31281 27.2447 1.21231 27.2447C1.06158 27.2447 0.935963 27.1946 0.835471 27.0861C0.734978 26.9859 0.684738 26.8606 0.684738 26.7103V20.1055V20.1138Z" fill="#6F6E6E"/>
<path d="M9.80446 22.8858H14.3434V20.1219C14.3434 19.9716 14.3936 19.8464 14.4857 19.7462C14.5778 19.646 14.6951 19.5875 14.8458 19.5875C14.9966 19.5875 15.1222 19.6376 15.231 19.7462C15.3315 19.8464 15.3902 19.9716 15.3902 20.1219V26.7352C15.3902 26.8771 15.3315 27.0024 15.2227 27.1026C15.1138 27.2028 14.9882 27.2529 14.8458 27.2529C14.7034 27.2529 14.5778 27.2028 14.4857 27.1026C14.3936 27.0024 14.3434 26.8771 14.3434 26.7352V23.9379H9.80446V26.7352C9.80446 26.8771 9.75421 27.0024 9.66209 27.1026C9.56998 27.2028 9.44435 27.2529 9.31036 27.2529C9.17637 27.2529 9.03401 27.2028 8.93352 27.1026C8.83302 27.0024 8.78278 26.8771 8.78278 26.7352V20.1219C8.78278 19.9716 8.83303 19.8464 8.9419 19.7462C9.05077 19.646 9.17638 19.5875 9.31874 19.5875C9.46111 19.5875 9.57835 19.6376 9.67046 19.7462C9.76258 19.8547 9.81283 19.9716 9.81283 20.1219V22.8858H9.80446Z" fill="#6F6E6E"/>
<path d="M20.6074 20.623V26.7352C20.6074 26.8771 20.5571 27.0024 20.4482 27.1026C20.3478 27.2028 20.2221 27.2529 20.0714 27.2529C19.9207 27.2529 19.8118 27.2028 19.7197 27.1026C19.6276 27.0024 19.5773 26.8771 19.5773 26.7352V20.623H16.8557C16.7133 20.6146 16.596 20.5645 16.4872 20.4726C16.3867 20.3808 16.3281 20.2555 16.3281 20.1219C16.3281 19.9883 16.3783 19.8547 16.4872 19.7545C16.5877 19.6543 16.7133 19.6042 16.8557 19.6042H23.262C23.4128 19.6042 23.53 19.6544 23.6305 19.7629C23.731 19.8631 23.7813 19.9884 23.7813 20.1303C23.7813 20.2806 23.731 20.4059 23.6305 20.4977C23.53 20.5896 23.4044 20.6397 23.262 20.6397H20.599L20.6074 20.623Z" fill="#6F6E6E"/>
<path d="M24.828 23.9379C24.8699 24.2802 24.9704 24.5975 25.1379 24.8898C25.3054 25.1821 25.498 25.4409 25.7492 25.658C25.9921 25.8751 26.2768 26.0421 26.5866 26.1674C26.8965 26.2926 27.2398 26.3511 27.5916 26.3511C28.027 26.3511 28.4206 26.2676 28.7724 26.1006C29.1241 25.9336 29.4172 25.7165 29.6433 25.4409C29.7354 25.3658 29.8275 25.324 29.9113 25.3073C29.995 25.2906 30.0788 25.3073 30.1625 25.324C30.263 25.3574 30.3384 25.4242 30.3886 25.5244C30.464 25.6162 30.4975 25.7248 30.4975 25.8584C30.4975 25.992 30.4305 26.1089 30.3049 26.2175C30.1541 26.3845 29.995 26.5264 29.8108 26.6684C29.6265 26.802 29.4172 26.9189 29.1911 27.0191C28.965 27.1193 28.7221 27.1944 28.4541 27.2529C28.1861 27.3113 27.9014 27.3364 27.5916 27.3364C27.0556 27.3364 26.5448 27.2362 26.0758 27.0274C25.6068 26.827 25.1965 26.5514 24.8364 26.2007C24.4847 25.85 24.2 25.4409 23.999 24.9649C23.798 24.489 23.6891 23.988 23.6891 23.4536C23.6891 22.9192 23.7896 22.4098 23.999 21.9422C24.2 21.4746 24.4847 21.0655 24.8364 20.7148C25.1881 20.3641 25.5985 20.0885 26.0758 19.8881C26.5448 19.6877 27.0556 19.5792 27.5916 19.5792C28.1275 19.5792 28.63 19.6794 29.099 19.8798C29.5763 20.0802 29.9866 20.3557 30.3384 20.6981C30.6901 21.0488 30.9664 21.4579 31.1758 21.9255C31.3852 22.3931 31.4856 22.8941 31.494 23.4285C31.494 23.5705 31.4521 23.6874 31.36 23.7792C31.2679 23.8711 31.1507 23.9212 30.9999 23.9212H24.8364L24.828 23.9379ZM30.4389 23.0778C30.397 22.7271 30.3049 22.3931 30.1374 22.0925C29.9783 21.7836 29.7689 21.5164 29.5177 21.2993C29.2664 21.0822 28.9733 20.8985 28.6467 20.7732C28.3201 20.648 27.9684 20.5812 27.5999 20.5812C27.2315 20.5812 26.8798 20.648 26.5615 20.7732C26.2349 20.9068 25.9502 21.0822 25.699 21.3076C25.4477 21.5331 25.2468 21.8003 25.0876 22.1009C24.9285 22.4098 24.8364 22.7355 24.8029 23.0778H30.4305H30.4389Z" fill="#6F6E6E"/>
<path d="M33.4369 20.8484C33.797 20.456 34.2241 20.147 34.7098 19.9215C35.1955 19.6961 35.7315 19.5875 36.3009 19.5875C36.8369 19.5875 37.3477 19.6877 37.8167 19.8965C38.2856 20.0969 38.696 20.3724 39.0477 20.7231C39.3994 21.0738 39.6758 21.483 39.8768 21.959C40.0778 22.4349 40.1866 22.9443 40.1866 23.4787C40.1866 24.0131 40.0861 24.5141 39.8768 24.9817C39.6758 25.4493 39.3911 25.8668 39.0477 26.2175C38.696 26.5682 38.2856 26.8437 37.8167 27.0441C37.3477 27.2445 36.8369 27.3531 36.3009 27.3531C35.7315 27.3531 35.1955 27.2445 34.7098 27.0191C34.2241 26.7936 33.797 26.493 33.4369 26.1006V29.499C33.4369 29.641 33.3866 29.7579 33.2861 29.8581C33.1857 29.9583 33.0684 30.0084 32.9261 30.0084C32.7837 30.0084 32.6664 29.9583 32.566 29.8581C32.4655 29.7579 32.4152 29.641 32.4152 29.499V20.0885C32.4152 19.9466 32.4655 19.8213 32.566 19.7295C32.6664 19.6376 32.7837 19.5875 32.9261 19.5875C33.0684 19.5875 33.1857 19.6376 33.2861 19.7295C33.3866 19.8213 33.4369 19.9466 33.4369 20.0885V20.8484ZM33.4369 23.4787C33.4369 23.8711 33.5123 24.2385 33.663 24.5809C33.8137 24.9232 34.0147 25.2238 34.2743 25.4827C34.5339 25.7415 34.8354 25.9419 35.1788 26.1006C35.5305 26.2509 35.899 26.326 36.3093 26.326C36.7196 26.326 37.0881 26.2509 37.4398 26.1006C37.7916 25.9503 38.093 25.7415 38.3526 25.4827C38.6122 25.2238 38.8132 24.9232 38.964 24.5809C39.1147 24.2385 39.1817 23.8711 39.1817 23.4787C39.1817 23.0862 39.1063 22.7105 38.964 22.3598C38.8132 22.0091 38.6122 21.7085 38.3526 21.4496C38.093 21.1908 37.7916 20.9903 37.4398 20.84C37.0881 20.6897 36.7196 20.6146 36.3093 20.6146C35.899 20.6146 35.5389 20.6897 35.1955 20.84C34.8438 20.9903 34.5423 21.1908 34.2827 21.4496C34.0231 21.7085 33.8221 22.0091 33.6714 22.3598C33.5206 22.7105 33.4453 23.0779 33.4453 23.4787H33.4369Z" fill="#6F6E6E"/>
<path d="M42.1378 22.8858H46.6767V20.1219C46.6767 19.9716 46.7269 19.8464 46.8191 19.7462C46.9112 19.646 47.0284 19.5875 47.1791 19.5875C47.3299 19.5875 47.4555 19.6376 47.5644 19.7462C47.6649 19.8464 47.7235 19.9716 47.7235 20.1219V26.7352C47.7235 26.8771 47.6649 27.0024 47.556 27.1026C47.4471 27.2028 47.3215 27.2529 47.1791 27.2529C47.0368 27.2529 46.9112 27.2028 46.8191 27.1026C46.7269 27.0024 46.6767 26.8771 46.6767 26.7352V23.9379H42.1378V26.7352C42.1378 26.8771 42.0875 27.0024 41.9954 27.1026C41.9033 27.2028 41.7777 27.2529 41.6437 27.2529C41.5097 27.2529 41.3673 27.2028 41.2669 27.1026C41.1664 27.0024 41.1161 26.8771 41.1161 26.7352V20.1219C41.1161 19.9716 41.1664 19.8464 41.2752 19.7462C41.3841 19.646 41.5097 19.5875 41.6521 19.5875C41.7944 19.5875 41.9117 19.6376 42.0038 19.7462C42.0959 19.8547 42.1462 19.9716 42.1462 20.1219V22.8858H42.1378Z" fill="#6F6E6E"/>
<path d="M49.993 23.9379C50.0349 24.2802 50.1354 24.5975 50.3028 24.8898C50.4703 25.1821 50.6629 25.4409 50.9142 25.658C51.157 25.8751 51.4417 26.0421 51.7516 26.1674C52.0615 26.2926 52.4048 26.3511 52.7565 26.3511C53.192 26.3511 53.5856 26.2676 53.9373 26.1006C54.289 25.9336 54.5821 25.7165 54.8082 25.4409C54.9004 25.3658 54.9925 25.324 55.0762 25.3073C55.16 25.2906 55.2437 25.3073 55.3275 25.324C55.4279 25.3574 55.5033 25.4242 55.5536 25.5244C55.6289 25.6162 55.6624 25.7248 55.6624 25.8584C55.6624 25.992 55.5954 26.1089 55.4698 26.2175C55.3191 26.3845 55.16 26.5264 54.9757 26.6684C54.7915 26.802 54.5821 26.9189 54.356 27.0191C54.1299 27.1193 53.8871 27.1944 53.6191 27.2529C53.3511 27.3113 53.0664 27.3364 52.7565 27.3364C52.2206 27.3364 51.7097 27.2362 51.2408 27.0274C50.7718 26.827 50.3615 26.5514 50.0014 26.2007C49.6496 25.85 49.3649 25.4409 49.1639 24.9649C48.9629 24.489 48.8541 23.988 48.8541 23.4536C48.8541 22.9192 48.9546 22.4098 49.1639 21.9422C49.3649 21.4746 49.6496 21.0655 50.0014 20.7148C50.3531 20.3641 50.7634 20.0885 51.2408 19.8881C51.7097 19.6877 52.2206 19.5792 52.7565 19.5792C53.2925 19.5792 53.7949 19.6794 54.2639 19.8798C54.7412 20.0802 55.1516 20.3557 55.5033 20.6981C55.855 21.0488 56.1314 21.4579 56.3407 21.9255C56.5501 22.3931 56.6506 22.8941 56.659 23.4285C56.659 23.5705 56.6171 23.6874 56.525 23.7792C56.4329 23.8711 56.3156 23.9212 56.1649 23.9212H50.0014L49.993 23.9379ZM55.6038 23.0778C55.5619 22.7271 55.4698 22.3931 55.3023 22.0925C55.1432 21.7836 54.9339 21.5164 54.6826 21.2993C54.4314 21.0822 54.1383 20.8985 53.8117 20.7732C53.4851 20.648 53.1334 20.5812 52.7649 20.5812C52.3964 20.5812 52.0447 20.648 51.7265 20.7732C51.3999 20.9068 51.1151 21.0822 50.8639 21.3076C50.6127 21.5331 50.4117 21.8003 50.2526 22.1009C50.0935 22.4098 50.0014 22.7355 49.9679 23.0778H55.5954H55.6038Z" fill="#6F6E6E"/>
<path d="M61.1979 20.623V26.7352C61.1979 26.8771 61.1476 27.0024 61.0387 27.1026C60.9383 27.2028 60.8126 27.2529 60.6619 27.2529C60.5112 27.2529 60.4023 27.2028 60.3102 27.1026C60.2181 27.0024 60.1678 26.8771 60.1678 26.7352V20.623H57.4462C57.3038 20.6146 57.1865 20.5645 57.0777 20.4726C56.9772 20.3808 56.9186 20.2555 56.9186 20.1219C56.9186 19.9883 56.9688 19.8547 57.0777 19.7545C57.1782 19.6543 57.3038 19.6042 57.4462 19.6042H63.8525C64.0033 19.6042 64.1205 19.6544 64.221 19.7629C64.3215 19.8631 64.3717 19.9884 64.3717 20.1303C64.3717 20.2806 64.3215 20.4059 64.221 20.4977C64.1205 20.5896 63.9949 20.6397 63.8525 20.6397H61.1895L61.1979 20.623Z" fill="#6F6E6E"/>
<path d="M65.3767 23.3033C65.226 23.3033 65.1003 23.2532 64.9999 23.1447C64.8994 23.0445 64.8491 22.9192 64.8491 22.7772C64.8491 22.6353 64.8994 22.51 64.9999 22.4098C65.1003 22.3096 65.226 22.2595 65.3767 22.2595H70.4264C70.5772 22.2595 70.7028 22.3096 70.8033 22.4098C70.9038 22.51 70.954 22.6353 70.954 22.7772C70.954 22.9192 70.9038 23.0445 70.8033 23.1447C70.7028 23.2449 70.5772 23.2949 70.4264 23.2949H65.3767V23.3033Z" fill="#6F6E6E"/>
<path d="M76.4141 25.5578L78.8427 19.9048C78.9013 19.7712 79.0018 19.6794 79.1274 19.6209C79.2614 19.5625 79.387 19.5625 79.521 19.6209C79.588 19.6627 79.6383 19.6961 79.6718 19.7295C79.7723 19.8046 79.8309 19.9048 79.856 20.0384L80.6097 26.6266C80.6348 26.7686 80.6097 26.8938 80.5176 27.0107C80.4338 27.1276 80.3166 27.2028 80.1742 27.2278C80.0318 27.2529 79.9062 27.2278 79.7974 27.136C79.6885 27.0525 79.6215 26.9355 79.5964 26.7936L79.052 22.0007L76.8999 26.9439C76.8999 26.9439 76.8663 27.0107 76.8496 27.0357C76.8328 27.0691 76.8077 27.0942 76.7826 27.1109C76.7491 27.1443 76.7072 27.1777 76.6402 27.2111C76.5732 27.2361 76.5062 27.2529 76.456 27.2529C76.3806 27.2529 76.2969 27.2528 76.2131 27.2111C76.1378 27.1777 76.0791 27.136 76.0456 27.0859C76.0122 27.0358 75.9787 26.9856 75.9535 26.9439L73.7846 21.9673L73.2319 26.7853C73.2068 26.9272 73.1397 27.0441 73.0309 27.1276C72.922 27.2194 72.7964 27.2445 72.654 27.2194C72.5117 27.1944 72.3944 27.1276 72.3107 27.0023C72.2269 26.8771 72.1934 26.7518 72.2186 26.6099L72.9806 20.0384C73.0058 19.8881 73.0811 19.7712 73.1984 19.6961C73.2235 19.671 73.2654 19.6376 73.324 19.6126C73.458 19.5541 73.5836 19.5541 73.7176 19.6126C73.8516 19.671 73.9437 19.7629 74.0023 19.8965L76.4309 25.5494L76.4141 25.5578Z" fill="#6F6E6E"/>
<path d="M81.4052 23.4787C81.4052 22.9443 81.5057 22.4349 81.7151 21.959C81.9161 21.483 82.2008 21.0738 82.5525 20.7231C82.9042 20.3724 83.3229 20.0969 83.7919 19.8965C84.2692 19.6961 84.7717 19.5875 85.2993 19.5875C85.8269 19.5875 86.3293 19.6877 86.7983 19.8881C87.2673 20.0885 87.6776 20.3641 88.0293 20.7065C88.3811 21.0488 88.6574 21.4579 88.8584 21.9256C89.0594 22.3932 89.1683 22.8942 89.185 23.4202V26.7268C89.185 26.8688 89.1348 27.0024 89.0343 27.1026C88.9338 27.2028 88.8082 27.2612 88.6658 27.2612C88.5234 27.2612 88.3978 27.2111 88.3057 27.1026C88.2136 27.0024 88.1633 26.8771 88.1633 26.7268V26.0254C87.7949 26.4179 87.3761 26.7435 86.8821 26.9857C86.3963 27.2278 85.8688 27.3531 85.2993 27.3531C84.7634 27.3531 84.2609 27.2529 83.7919 27.0441C83.3229 26.8437 82.9042 26.5682 82.5525 26.2175C82.2008 25.8668 81.9161 25.4576 81.7151 24.9817C81.5141 24.5057 81.4052 24.0047 81.4052 23.4787ZM82.4353 23.4787C82.4353 23.8711 82.5106 24.2385 82.6614 24.5809C82.8121 24.9232 83.0131 25.2238 83.2727 25.4827C83.5323 25.7415 83.8338 25.9419 84.1771 26.1006C84.5288 26.2509 84.8973 26.326 85.3077 26.326C85.718 26.326 86.0865 26.2509 86.4382 26.1006C86.7899 25.9503 87.0914 25.7415 87.3426 25.4827C87.6022 25.2238 87.8032 24.9232 87.9456 24.5809C88.0879 24.2385 88.1633 23.8711 88.1633 23.4787C88.1633 23.0862 88.0879 22.7105 87.9456 22.3598C87.7948 22.0091 87.5939 21.7085 87.3426 21.4496C87.083 21.1908 86.7816 20.9903 86.4382 20.84C86.0865 20.6897 85.718 20.6146 85.3077 20.6146C84.8973 20.6146 84.5372 20.6897 84.1855 20.84C83.8338 20.9903 83.5323 21.1908 83.2727 21.4496C83.0131 21.7085 82.8121 22.0091 82.6614 22.3598C82.5106 22.7105 82.4353 23.0779 82.4353 23.4787Z" fill="#6F6E6E"/>
<path d="M91.848 26.7352C91.848 26.8855 91.7978 27.0107 91.7057 27.1109C91.6136 27.2111 91.4879 27.2612 91.3539 27.2612C91.2199 27.2612 91.0776 27.2111 90.9771 27.1109C90.8766 27.0107 90.818 26.8855 90.818 26.7352V20.1219C90.818 19.98 90.8682 19.8547 90.9771 19.7545C91.0776 19.6543 91.2032 19.5959 91.3539 19.5959H95.6249C95.7756 19.5959 95.9012 19.6376 96.0017 19.7462C96.1022 19.8547 96.1525 19.98 96.1525 20.1219C96.1525 20.2639 96.1022 20.3891 96.0017 20.481C95.9012 20.5728 95.7756 20.6229 95.6249 20.6229H91.8564V26.7352H91.848Z" fill="#6F6E6E"/>
<path d="M96.0771 23.4787C96.0771 22.9443 96.1776 22.4349 96.3869 21.959C96.5879 21.483 96.8726 21.0738 97.2244 20.7231C97.5761 20.3724 97.9948 20.0969 98.4638 19.8965C98.9411 19.6961 99.4436 19.5875 99.9711 19.5875C100.499 19.5875 101.001 19.6877 101.47 19.8881C101.939 20.0885 102.349 20.3641 102.701 20.7065C103.053 21.0488 103.329 21.4579 103.53 21.9256C103.731 22.3932 103.84 22.8942 103.857 23.4202V26.7268C103.857 26.8688 103.807 27.0024 103.706 27.1026C103.606 27.2028 103.48 27.2612 103.338 27.2612C103.195 27.2612 103.07 27.2111 102.978 27.1026C102.885 27.0024 102.835 26.8771 102.835 26.7268V26.0254C102.467 26.4179 102.048 26.7435 101.554 26.9857C101.068 27.2278 100.541 27.3531 99.9711 27.3531C99.4352 27.3531 98.9327 27.2529 98.4638 27.0441C97.9948 26.8437 97.5761 26.5682 97.2244 26.2175C96.8726 25.8668 96.5879 25.4576 96.3869 24.9817C96.1859 24.5057 96.0771 24.0047 96.0771 23.4787ZM97.1071 23.4787C97.1071 23.8711 97.1825 24.2385 97.3332 24.5809C97.484 24.9232 97.6849 25.2238 97.9445 25.4827C98.2041 25.7415 98.5056 25.9419 98.849 26.1006C99.2007 26.2509 99.5692 26.326 99.9795 26.326C100.39 26.326 100.758 26.2509 101.11 26.1006C101.462 25.9503 101.763 25.7415 102.014 25.4827C102.274 25.2238 102.475 24.9232 102.617 24.5809C102.76 24.2385 102.835 23.8711 102.835 23.4787C102.835 23.0862 102.76 22.7105 102.617 22.3598C102.467 22.0091 102.266 21.7085 102.014 21.4496C101.755 21.1908 101.453 20.9903 101.11 20.84C100.758 20.6897 100.39 20.6146 99.9795 20.6146C99.5692 20.6146 99.2091 20.6897 98.8573 20.84C98.5056 20.9903 98.2041 21.1908 97.9445 21.4496C97.6849 21.7085 97.484 22.0091 97.3332 22.3598C97.1825 22.7105 97.1071 23.0779 97.1071 23.4787Z" fill="#6F6E6E"/>
<path d="M104.937 26.4429C104.845 26.3177 104.803 26.1841 104.82 26.0505C104.837 25.9085 104.904 25.7916 105.021 25.6914C105.113 25.6246 105.23 25.5912 105.381 25.5995C105.532 25.6079 105.649 25.6747 105.75 25.8C105.85 25.9419 105.984 26.0421 106.151 26.1089C106.319 26.1757 106.503 26.2091 106.704 26.2258H108.572C108.739 26.2258 108.898 26.1841 109.049 26.1173C109.2 26.0505 109.334 25.9586 109.443 25.8417C109.551 25.7248 109.644 25.5912 109.711 25.4409C109.778 25.2823 109.811 25.1153 109.811 24.9399C109.811 24.7646 109.778 24.5976 109.702 24.4473C109.635 24.297 109.535 24.1634 109.409 24.0548C109.283 23.9462 109.15 23.8627 108.99 23.8043C108.831 23.7458 108.672 23.7124 108.505 23.7124H106.813C106.662 23.7124 106.545 23.6707 106.436 23.5955C106.336 23.5204 106.285 23.4035 106.285 23.2699C106.285 23.1196 106.336 23.0027 106.436 22.9192C106.537 22.8357 106.662 22.794 106.813 22.794H108.488C108.655 22.794 108.815 22.7605 108.965 22.7104C109.116 22.6603 109.242 22.5852 109.359 22.4933C109.468 22.4015 109.56 22.2846 109.627 22.151C109.694 22.009 109.727 21.8587 109.727 21.6834C109.727 21.3243 109.61 21.0488 109.367 20.8734C109.124 20.6981 108.831 20.6146 108.471 20.6146H106.888C106.679 20.6229 106.495 20.6647 106.319 20.7315C106.151 20.7983 106.017 20.8985 105.925 21.0237C105.825 21.1573 105.708 21.2241 105.565 21.2492C105.423 21.2659 105.306 21.2492 105.214 21.174C105.088 21.0738 105.013 20.9569 104.996 20.8066C104.979 20.6563 105.013 20.5227 105.105 20.3975C105.272 20.172 105.507 19.9883 105.817 19.838C106.126 19.6877 106.478 19.6042 106.863 19.5959H108.622C108.923 19.5959 109.208 19.6543 109.468 19.7462C109.727 19.838 109.953 19.9716 110.138 20.147C110.322 20.3223 110.473 20.5311 110.582 20.7732C110.69 21.0154 110.741 21.2909 110.741 21.5999C110.741 21.9923 110.649 22.3347 110.464 22.6102C110.28 22.8858 110.037 23.1112 109.736 23.2615C110.062 23.4369 110.33 23.6707 110.531 23.9797C110.732 24.2803 110.833 24.6393 110.833 25.0401C110.833 25.3574 110.774 25.6497 110.665 25.9169C110.556 26.1841 110.397 26.4262 110.196 26.6183C109.995 26.8187 109.761 26.969 109.484 27.0859C109.208 27.2028 108.915 27.2529 108.605 27.2529H106.746C106.352 27.2445 105.992 27.161 105.666 27.0107C105.348 26.8604 105.096 26.6684 104.929 26.4429H104.937Z" fill="#6F6E6E"/>
<path d="M112.248 20.1136C112.248 19.9633 112.298 19.838 112.399 19.7378C112.499 19.6293 112.625 19.5792 112.776 19.5792C112.926 19.5792 113.06 19.6293 113.144 19.7378C113.228 19.8464 113.278 19.9716 113.278 20.1136V25.3657L117.758 19.7879C117.8 19.7295 117.85 19.6877 117.909 19.6543H117.917C118.01 19.6042 118.11 19.5792 118.21 19.5875C118.311 19.5875 118.411 19.6293 118.495 19.7044C118.612 19.8046 118.671 19.9215 118.663 20.0635C118.654 20.2054 118.604 20.3307 118.512 20.4392L117.708 21.4329V20.1052C117.708 20.0134 117.725 19.9299 117.758 19.8464C117.792 19.7629 117.842 19.7044 117.909 19.6543H117.917C118.001 19.5959 118.085 19.5708 118.169 19.5708C118.319 19.5708 118.437 19.6209 118.545 19.7295C118.646 19.838 118.696 19.9549 118.696 20.0969V26.7101C118.696 26.852 118.646 26.9857 118.545 27.0859C118.445 27.1861 118.319 27.2445 118.177 27.2445C118.035 27.2445 117.926 27.1944 117.842 27.0859C117.758 26.9857 117.716 26.8604 117.716 26.7101V21.4162L113.211 27.0191C113.211 27.0191 113.152 27.0775 113.127 27.1026C113.102 27.1276 113.069 27.1443 113.044 27.1694C112.96 27.2195 112.876 27.2445 112.776 27.2445C112.625 27.2445 112.499 27.1944 112.399 27.0859C112.298 26.9857 112.248 26.8604 112.248 26.7101V20.1052V20.1136Z" fill="#6F6E6E"/>
<path d="M121.368 22.8858H125.907V20.1219C125.907 19.9716 125.957 19.8464 126.049 19.7462C126.141 19.646 126.258 19.5875 126.409 19.5875C126.56 19.5875 126.685 19.6376 126.794 19.7462C126.895 19.8464 126.953 19.9716 126.953 20.1219V26.7352C126.953 26.8771 126.895 27.0024 126.786 27.1026C126.677 27.2028 126.551 27.2529 126.409 27.2529C126.267 27.2529 126.141 27.2028 126.049 27.1026C125.957 27.0024 125.907 26.8771 125.907 26.7352V23.9379H121.368V26.7352C121.368 26.8771 121.317 27.0024 121.225 27.1026C121.133 27.2028 121.007 27.2529 120.874 27.2529C120.74 27.2529 120.597 27.2028 120.497 27.1026C120.396 27.0024 120.346 26.8771 120.346 26.7352V20.1219C120.346 19.9716 120.396 19.8464 120.505 19.7462C120.614 19.646 120.74 19.5875 120.882 19.5875C121.024 19.5875 121.141 19.6376 121.234 19.7462C121.326 19.8547 121.376 19.9716 121.376 20.1219V22.8858H121.368Z" fill="#6F6E6E"/>
</svg>
